<?xml version="1.0" encoding="UTF-8"?>
<svg id="Layer_2" data-name="Layer 2" xmlns="http://www.w3.org/2000/svg" viewBox="0 0 41.2 16.38">
  <defs>
    <style>
      .cls-1, .cls-2 {
        fill: #231f20;
      }

      .cls-2 {
        fill-rule: evenodd;
      }
    </style>
  </defs>
  <g id="Layer_1-2" data-name="Layer 1">
    <g>
      <g>
        <path class="cls-2" d="M8.27,16.38c-4,0-6.08-.94-7.32-3.16-.7-1.28-.95-3.56-.95-5.03s.25-3.76.95-5.03C2.19.94,4.27,0,8.27,0s6.07.94,7.32,3.16c.7,1.28.95,3.56.95,5.03s-.25,3.76-.95,5.03c-1.24,2.22-3.32,3.16-7.32,3.16ZM10.28,12.82c-.45,0-1.11-.22-1.42-.99l-1.99-5.13c-.43-1.16.41-2.24,1.38-2.24.45,0,1.11.22,1.42.99l1.99,5.13c.43,1.16-.4,2.24-1.38,2.24ZM6.28,12.82c-.45,0-1.11-.22-1.42-.99l-1.99-5.13c-.43-1.16.41-2.24,1.38-2.24.45,0,1.11.22,1.42.99l1.99,5.13c.43,1.16-.41,2.24-1.38,2.24ZM12.77,8.94c-.45,0-1.11-.22-1.42-.99l-.49-1.25c-.43-1.16.41-2.24,1.38-2.24.45,0,1.11.22,1.42.99l.49,1.25c.43,1.16-.4,2.24-1.38,2.24Z"/>
        <path class="cls-1" d="M23.65,4.61l-.79,2.63c-.03.1-.12.16-.21.16-.09,0-.17-.06-.2-.16l-.5-1.92-.51,1.92c-.03.1-.11.16-.2.16s-.18-.06-.21-.16l-.79-2.63s0-.04,0-.06c0-.1.06-.2.15-.23.02,0,.04-.01.06-.01.09,0,.18.06.21.16l.58,1.95.52-1.95c.02-.07.08-.16.2-.16s.18.09.2.16l.51,1.95.58-1.95c.03-.1.12-.16.21-.16.02,0,.04,0,.06.01.09.03.15.12.15.22,0,.02,0,.05-.01.07ZM26.35,7.38s-.06.02-.09.02c-.08,0-.16-.05-.2-.14l-.27-.64h-1.31l-.27.64c-.03.09-.12.14-.2.14-.03,0-.06,0-.09-.02-.08-.04-.12-.12-.12-.21,0-.03,0-.07.02-.1l1.12-2.64c.03-.08.11-.14.2-.14s.16.05.2.14l1.12,2.64s.02.06.02.09c0,.09-.04.17-.12.21ZM25.15,5.06l-.48,1.15h.96l-.48-1.15ZM28.89,6.02s.02.03.48,1.05c.02.03.02.06.02.1,0,.09-.04.18-.12.22-.03.02-.06.02-.1.02-.08,0-.16-.05-.2-.14l-.53-1.17h-.88v1.07c0,.14-.11.24-.23.24s-.23-.11-.23-.24v-2.58c0-.13.1-.24.23-.24h1.11c.53,0,.96.27.96.88,0,.37-.18.67-.52.79ZM28.51,4.79h-.95v.89h.95c.25,0,.45-.16.45-.44s-.2-.45-.45-.45ZM32.31,7.4c-.07,0-.12-.03-.17-.09l-1.5-2.15v2.01c0,.13-.1.23-.22.23s-.21-.1-.21-.23v-2.64c0-.12.09-.23.22-.23.06,0,.13.04.16.09,0,0,.84,1.25,1.5,2.15v-2.01c0-.13.09-.23.21-.23s.22.11.22.23v2.64c0,.13-.1.23-.22.23ZM35.3,7.37h-1.64c-.13,0-.23-.11-.23-.25v-2.54c0-.14.1-.24.23-.24h1.58c.12,0,.22.1.22.22s-.1.23-.22.23h-1.35v.8h.76c.12,0,.21.1.21.23s-.09.23-.21.23h-.76v.86h1.42c.12,0,.21.1.21.23s-.09.23-.21.23ZM38,6.02s.02.03.48,1.05c.02.03.02.06.02.1,0,.09-.04.18-.12.22-.03.02-.06.02-.1.02-.09,0-.16-.05-.2-.14l-.53-1.17h-.88v1.07c0,.14-.11.24-.23.24s-.23-.11-.23-.24v-2.58c0-.13.1-.24.23-.24h1.11c.53,0,.96.27.96.88,0,.37-.18.67-.51.79ZM37.61,4.79h-.95v.89h.95c.25,0,.45-.16.45-.44s-.2-.45-.45-.45Z"/>
      </g>
      <g>
        <path class="cls-1" d="M34.94,12.04c-.12,0-.22-.11-.22-.24v-2.56c0-.13.1-.24.22-.24s.22.11.22.24v2.56c0,.13-.1.24-.22.24Z"/>
        <path class="cls-1" d="M38.39,11.51c-.25.35-.68.57-1.1.57-.8,0-1.41-.7-1.41-1.54s.61-1.53,1.41-1.53c.35,0,.68.13.93.39.04.05.07.11.07.16,0,.05-.02.1-.05.14-.04.05-.09.08-.14.08-.05,0-.1-.02-.14-.05-.2-.18-.39-.28-.67-.28-.58,0-.96.51-.96,1.09s.38,1.1.96,1.1c.43,0,.65-.24.8-.43.04-.05.09-.07.14-.07.05,0,.1.02.14.06.04.04.06.09.06.15,0,.05-.02.11-.05.15Z"/>
        <path class="cls-1" d="M22.83,11.51c-.25.35-.67.57-1.1.57-.8,0-1.41-.7-1.41-1.54s.61-1.53,1.41-1.53c.35,0,.68.13.93.39.05.05.07.11.07.16,0,.05-.02.1-.05.14-.04.05-.09.08-.15.08-.05,0-.1-.02-.14-.05-.2-.18-.39-.28-.67-.28-.58,0-.96.51-.96,1.09s.38,1.1.96,1.1c.43,0,.65-.24.8-.43.04-.05.09-.07.14-.07.05,0,.11.02.14.06.04.04.06.09.06.15,0,.05-.02.11-.05.15Z"/>
        <path class="cls-1" d="M30.73,9.6c-.2-.08-.44-.16-.67-.16-.27,0-.64.06-.64.35,0,.33.57.46.88.57.45.16.87.3.87.84,0,.65-.56.87-1.12.87-.31,0-.74-.07-1.02-.26-.08-.05-.1-.12-.1-.2,0-.14.1-.22.2-.22.06,0,.14.05.14.05.27.14.53.19.78.19.28,0,.67-.08.67-.41,0-.35-.5-.4-1.01-.59-.37-.14-.74-.31-.74-.84,0-.61.56-.79,1.08-.79.26,0,.61.08.86.19.08.04.13.12.13.2,0,.12-.07.22-.19.22-.03,0-.08,0-.11-.02Z"/>
        <path class="cls-1" d="M33.52,9.6c-.2-.08-.45-.16-.67-.16-.27,0-.64.06-.64.35,0,.33.57.46.88.57.45.16.87.3.87.84,0,.65-.56.87-1.12.87-.31,0-.74-.07-1.02-.26-.08-.05-.1-.12-.1-.2,0-.14.1-.22.19-.22.06,0,.14.05.14.05.27.14.53.19.78.19.28,0,.67-.08.67-.41,0-.35-.5-.4-1.01-.59-.37-.14-.74-.31-.74-.84,0-.61.56-.79,1.08-.79.26,0,.61.08.86.19.08.04.13.12.13.2,0,.12-.07.22-.2.22-.03,0-.08,0-.11-.02Z"/>
        <path class="cls-1" d="M40.76,9.6c-.2-.08-.44-.16-.67-.16-.27,0-.64.06-.64.35,0,.33.57.46.88.57.45.16.87.3.87.84,0,.65-.56.87-1.12.87-.31,0-.74-.07-1.02-.26-.07-.05-.1-.12-.1-.2,0-.14.1-.22.19-.22.06,0,.14.05.14.05.27.14.53.19.78.19.28,0,.67-.08.67-.41,0-.35-.5-.4-1.01-.59-.37-.14-.74-.31-.74-.84,0-.61.56-.79,1.08-.79.26,0,.61.08.86.19.08.04.13.12.13.2,0,.12-.07.22-.2.22-.03,0-.08,0-.11-.02Z"/>
        <path class="cls-1" d="M25.37,11.97h-1.61c-.12,0-.23-.11-.23-.24v-2.49c0-.13.1-.24.23-.24h0c.12,0,.21.09.21.22s0,.22,0,.22v2.08h1.39c.12,0,.21.1.21.22s-.09.22-.21.22Z"/>
        <path class="cls-1" d="M28.32,12.02s-.06.02-.09.02c-.08,0-.16-.05-.19-.13l-.26-.63h-1.28l-.26.63c-.03.09-.12.13-.2.13-.03,0-.05,0-.08-.02-.08-.04-.12-.12-.12-.2,0-.03,0-.07.02-.1l1.1-2.59c.03-.08.11-.13.19-.13s.16.05.19.13l1.1,2.59s.02.06.02.09c0,.08-.04.17-.12.21ZM27.14,9.75l-.47,1.13h.94l-.47-1.13Z"/>
      </g>
    </g>
  </g>
</svg>