<?xml version="1.0" encoding="UTF-8"?><svg xmlns="http://www.w3.org/2000/svg" viewBox="0 0 1211.83 1278.66"><defs><style>.d{fill:#1d1d1b;}</style></defs><g id="a"/><g id="b"><g id="c"><g><polygon class="d" points="102.19 998.5 10.15 893.31 0 893.31 0 1045.56 22.84 1045.56 22.84 939.45 115.11 1045.56 124.56 1045.56 124.56 893.31 102.19 893.31 102.19 998.5"/><polygon class="d" points="220.04 1045.56 309.31 1045.56 309.31 1026.18 243.8 1026.18 243.8 986.74 292.94 986.74 292.94 968.29 243.8 968.29 243.8 912.69 309.31 912.69 309.31 893.31 220.04 893.31 220.04 1045.56"/><polygon class="d" points="484.14 949.83 521.28 1047.64 528.89 1047.64 586.33 893.31 563.5 893.31 524.74 998.74 488.06 904.39 481.14 904.39 442.62 1000.35 403.87 893.31 380.34 893.31 436.62 1047.64 444.23 1047.64 484.14 949.83"/><polygon class="d" points="662.19 893.31 662.19 1045.56 748 1045.56 748 1026.18 685.71 1026.18 685.71 893.31 662.19 893.31"/><rect class="d" x="830.57" y="893.31" width="23.76" height="152.25"/><polygon class="d" points="949.81 1045.56 973.57 1045.56 973.57 986.74 1022.71 986.74 1022.71 968.29 973.57 968.29 973.57 912.69 1039.08 912.69 1039.08 893.31 949.81 893.31 949.81 1045.56"/><polygon class="d" points="1211.83 912.69 1211.83 893.31 1122.57 893.31 1122.57 1045.56 1211.83 1045.56 1211.83 1026.18 1146.32 1026.18 1146.32 986.74 1195.46 986.74 1195.46 968.29 1146.32 968.29 1146.32 912.69 1211.83 912.69"/><path class="d" d="M510.2,1204.55c27.11-2.41,39.96-15.46,39.96-34.14,0-17.67-11.65-30.33-48.2-30.33-13.26,0-29.12,1.81-43.99,1.81-7.02,0-11.65-.2-18.48-.4v3.41l5.23,1c7.83,1.81,9.23,3.82,10.04,14.87,.4,6.83,.4,32.74,.4,47.81,0,16.06,0,41.77-.4,48.4-.81,11.25-2.01,13.26-9.84,14.87l-5.43,1.01v3.41c9.24-.6,20.69-.81,26.91-.81,10.85,0,22.3,1.01,35.36,1.01,17.88,0,32.13-2.81,41.17-9.84,8.84-5.62,12.85-15.46,12.85-27.31,0-16.07-9.64-32.54-45.59-34.75Zm-26.11-58.85c3.41-.2,6.83-.4,9.85-.4,20.28,0,28.12,8.43,28.12,26.92,0,21.89-11.25,30.33-33.74,31.13-1.81,0-3.62,.21-5.23,.21,0-25.71,.4-49.01,1.01-57.85Zm17.27,125.53c-11.45,0-16.87-2.01-17.47-13.46-.81-9.44-.81-22.1-.81-35.36v-14.06h6.43c25.11,.21,36.35,8.04,36.35,31.33,0,22.1-7.43,31.54-24.5,31.54Z"/><path class="d" d="M648.78,1267.22c-3.41,0-6.22-2.01-6.22-7.23,0-9.44,2.21-53.43,2.21-60.26,0-14.06-8.04-23.3-25.31-23.3-19.09,0-45.6,15.06-44.59,36.16l10.44-1.41c9.85-1.2,11.65-2.41,13.26-12.65l2.41-14.87c1.81-.4,3.82-.4,5.43-.4,7.83,.6,12.45,3.62,12.45,12.46,0,4.02,0,17.88-.2,32.33l-17.07,2.21c-21.5,2.81-33.15,6.23-33.15,21.5,0,14.26,10.45,26.11,27.51,26.91,7.23-2.01,15.87-8.03,21.5-12.85,1.61,8.63,8.03,12.85,17.47,12.85s18.68-4.22,23.1-13.86l-1.01-1.01c-2.61,2.21-5.23,3.42-8.24,3.42Zm-30.53-4.22c-3.01,1.41-6.02,2.01-8.83,2.01-9.24,0-16.07-6.23-16.07-17.68,0-6.63,2.81-10.64,16.67-13.46l8.63-1.61c-.2,12.66-.2,25.3-.4,30.73Z"/><path class="d" d="M698.21,1260.38c-.21-10.04-.4-37.36-.4-56.04,0-17.27,.2-52.02,1.01-71.31l-2.01-1.2c-12.45,4.22-23.1,7.23-36.55,9.84v2.21l2.61,1.2c7.83,3.22,9.04,4.42,9.44,11.25,.4,9.64,.4,31.54,.4,48.61,0,18.07-.6,47.6-.81,55.24-.2,8.24-1.6,10.84-8.23,12.25l-3.21,.8v3.02c16.87-.81,32.54-.81,48.41,0v-3.02l-2.61-.6c-6.63-1.61-7.83-3.82-8.03-12.25Z"/><path class="d" d="M753.63,1262.39c-.4-8.64-.4-29.12-.4-43.39,0-6.02,.2-24.51,1.4-41.38l-2-1.2c-12.25,4.82-23.1,8.84-36.35,12.66v2.21l3.81,1.61c7.44,2.61,8.04,4.62,8.04,11.85v6.83c0,13.65-.4,41.98-1.01,49.01-.6,8.84-1.81,10.24-8.24,11.85l-3.01,.8v3.02c17.27-.81,30.33-1.01,48.4,0v-3.02l-2.41-.6c-7.02-1.81-8.03-2.61-8.24-10.24Z"/><path class="d" d="M724.11,1150.52c0,8.43,5.62,15.26,15.46,15.26s15.47-6.83,15.47-15.26-5.83-15.47-15.47-15.47-15.46,6.83-15.46,15.47Z"/><path class="d" d="M733.14,254.71v-77.59h-5.91c-45.06,0-84.12,26.12-102.86,64.01v-81.68c7.93-1.5,14.89-5.86,19.69-12.39,10.35-14.1,7.3-34-6.8-44.38-14.11-10.34-34.02-7.29-44.38,6.8-5.02,6.83-7.07,15.21-5.79,23.59,1.28,8.39,5.76,15.77,12.59,20.79,3.89,2.85,8.28,4.73,12.88,5.59v81.68c-18.74-37.89-57.8-64.01-102.86-64.01h-5.91v77.65c-5.06-.58-10.2-.88-15.4-.88h-57.79v5.91c0,74.69,60.77,135.46,135.46,135.46h33.83c4.15,.68,8.38,1.14,12.66,1.36v120.44c-15.68-28.59-46.07-48.02-80.91-48.02h-64.52v5.91c0,50.84,41.37,92.21,92.22,92.21h53.22v59.74c0,3.27,2.64,5.91,5.91,5.91s5.91-2.64,5.91-5.91v-59.74h52.18c50.84,0,92.21-41.37,92.21-92.21v-5.91h-64.51c-34.09,0-63.91,18.6-79.87,46.18v-118.59c4.29-.22,8.51-.68,12.66-1.36h33.31c74.69,0,135.46-60.77,135.46-135.46v-5.91h-57.79c-5.03,0-10,.28-14.88,.82Zm-173.79,300.63c-42.35,0-77.15-32.9-80.18-74.48h52.49c42.35,0,77.15,32.9,80.17,74.48h-52.48Zm161.98-366.23v67.43c-43.34,8.7-79.27,38.15-96.95,77.51v-42.25c0-54.73,42.97-99.61,96.95-102.68Zm-85.29,194.33h-11.52c2.66-56.39,43.28-103,96.81-114.83v13.49c0,50.72-36.92,92.99-85.29,101.34Zm-120.42-101.34v-13.38c53.27,12.01,93.63,58.52,96.29,114.72h-11c-48.38-8.36-85.29-50.62-85.29-101.34Zm83.16-150.81c-.8-5.26,.48-10.52,3.65-14.82,3.15-4.29,7.78-7.1,13.04-7.9,1.02-.15,2.04-.23,3.06-.23,4.21,0,8.3,1.34,11.76,3.88,8.85,6.5,10.77,19,4.26,27.85-3.15,4.28-7.78,7.1-13.05,7.89-5.22,.82-10.54-.48-14.8-3.63-4.29-3.15-7.1-7.78-7.9-13.04Zm-83.16,57.82c53.98,3.07,96.95,47.95,96.95,102.68v43.44c-17.41-39.79-53.41-69.68-96.95-78.59v-67.53Zm-73.05,76.59h45.83c5.22,0,10.36,.33,15.4,.96v15.44c0,43.87,24.76,82.05,61.04,101.33-65.63-.65-119.2-52.69-122.27-117.73Zm261.69,215.15h52.48c-3.02,41.59-37.82,74.48-80.17,74.48h-52.18v-3.09c4.48-40.11,38.58-71.39,79.87-71.39Zm-32.13-97.43c36.27-19.28,61.02-57.46,61.02-101.32v-15.5c4.88-.59,9.85-.9,14.88-.9h45.83c-3.07,64.86-56.35,116.8-121.74,117.72Z"/><path class="d" d="M618.48,0c-148.87,0-269.99,124.14-269.99,276.73v223.67c0,152.59,121.12,276.72,269.99,276.72s269.97-124.13,269.97-276.72v-223.67C888.45,124.14,767.34,0,618.48,0Zm258.15,500.4c0,146.07-115.8,264.9-258.15,264.9s-258.18-118.84-258.18-264.9v-223.67c0-146.08,115.81-264.92,258.18-264.92s258.15,118.84,258.15,264.92v223.67Z"/><path class="d" d="M622.06,658.71c-7.52-2.27-15.45,1.98-17.73,9.5-2.27,7.52,1.98,15.45,9.5,17.73,7.52,2.27,15.45-1.98,17.73-9.5,2.27-7.52-1.98-15.45-9.5-17.73Z"/></g></g></g></svg>