<?xml version="1.0" encoding="UTF-8"?>
<svg id="Layer_2" data-name="Layer 2" xmlns="http://www.w3.org/2000/svg" viewBox="0 0 681.93 141.29">
  <g id="Layer_1-2" data-name="Layer 1">
    <path d="M428.33,89.9l1.92,1.63c-1.19,2.27-3.11,4.39-5.77,6.37-2.67,1.98-6.12,2.96-10.37,2.96-7.31,0-12.69-1.66-16.14-4.99-3.46-3.32-5.18-7.96-5.18-13.91v-43.6h-15.4v-3.41c12.67,0,15.4-11.12,15.4-23.77h16.14c0,9.85-5.84,19.02-15.75,23.78,14.05,0,31.15,0,31.15,0v3.41h-15.4v38.71c0,2.29.05,4.54.15,6.78s.45,4.24,1.04,6.03c.59,1.79,1.55,3.23,2.89,4.32,1.33,1.09,3.19,1.64,5.55,1.64,2.57,0,4.57-.57,6-1.71,1.43-1.13,2.69-2.54,3.78-4.22ZM371.01,95.08c-.89-.59-1.58-1.43-2.07-2.52-.5-1.08-.74-2.62-.74-4.59v-29.92c0-2.17-.22-4.66-.67-7.48-.45-2.81-1.41-5.5-2.89-8.07-1.48-2.57-3.68-4.74-6.59-6.52-2.92-1.78-6.89-2.67-11.93-2.67-4.44,0-8.59.89-12.44,2.67s-7.06,4.69-9.63,8.74c-.1-1.68-.27-3.48-.52-5.41-.25-1.93-.62-4.12-1.11-6.59-1.58.69-3.36,1.33-5.33,1.93-1.98.59-4,1.11-6.08,1.55-2.07.45-4.14.84-6.22,1.19-2.08.35-3.95.62-5.63.81v2.67c1.48,0,2.81.08,4,.23,1.18.15,2.22.52,3.11,1.11s1.58,1.46,2.07,2.59c.5,1.14.74,2.64.74,4.52v38.66c0,1.98-.25,3.51-.74,4.59s-1.19,1.92-2.07,2.52-1.93.96-3.11,1.11c-1.19.15-2.52.22-4,.22v2.67h35.99v-2.67c-1.48,0-2.81-.08-4-.22-1.19-.15-2.22-.52-3.11-1.11s-1.58-1.43-2.07-2.51c-.5-1.08-.74-2.61-.74-4.58v-30.73c0-2.46.34-4.8,1.04-7.02.69-2.22,1.68-4.16,2.96-5.83,1.28-1.67,2.83-3.03,4.66-4.06,1.83-1.03,3.87-1.55,6.14-1.55,2.96,0,5.26.84,6.89,2.51,1.63,1.67,2.81,3.62,3.55,5.84.74,2.21,1.19,4.43,1.33,6.65.15,2.21.22,3.91.22,5.09v29.1c0,1.97-.25,3.5-.74,4.58-.5,1.08-1.19,1.92-2.07,2.51-.89.59-1.93.96-3.11,1.11-1.18.15-2.52.22-4,.22v2.67h35.99v-2.67c-1.48,0-2.81-.08-4-.22-1.19-.15-2.22-.52-3.11-1.11ZM67.76,4.52c-3.6-1.83-7.64-3.19-12.14-3.85-4.51-.67-8.96-.67-13.4-.67H0v2.67c1.58,0,3.09.12,4.52.37s2.69.72,3.78,1.41c1.08.69,1.95,1.65,2.59,2.89.64,1.24.96,2.89.96,4.96v32.88h18.73V9.15c-.03-4.74,5.61-5.45,9.56-5.45,14.61,0,19.64,10.61,19.64,21.63,0,12.42-3.92,23.99-20.53,23.99h-8.59c-10.39,0-18.81,8.42-18.81,18.81v18.66c0,2.07-.32,3.73-.96,4.96s-1.5,2.2-2.59,2.89c-1.09.69-2.35,1.16-3.78,1.41s-2.94.37-4.52.37v2.67h42.43v-2.67c-1.58,0-3.09-.12-4.52-.37-1.44-.25-2.69-.71-3.78-1.41-1.09-.69-1.95-1.65-2.59-2.89s-.96-2.89-.96-4.96v-25.4c0-4.38,3.55-7.92,7.92-7.92h3.86c4.54,0,9.06-.44,13.56-1.33,4.49-.89,8.52-2.44,12.07-4.66,3.56-2.22,6.44-5.19,8.66-8.89,2.22-3.7,3.33-8.41,3.33-14.14,0-5.04-1.14-9.16-3.41-12.37-2.27-3.21-5.21-5.73-8.81-7.56ZM673.32,83.49c-4.76,0-8.61,3.86-8.61,8.61s3.86,8.61,8.61,8.61,8.61-3.86,8.61-8.61-3.86-8.61-8.61-8.61ZM571.58,24.71c-4.76,0-8.61,3.86-8.61,8.61s3.86,8.61,8.61,8.61,8.61-3.86,8.61-8.61-3.86-8.61-8.61-8.61ZM650.93,91.08l1.93,1.04c-.2.5-.59,1.21-1.19,2.15-.59.94-1.41,1.88-2.44,2.81-1.04.94-2.35,1.78-3.93,2.52-1.58.74-3.41,1.11-5.48,1.11-3.75,0-6.69-.77-8.81-2.29-2.12-1.53-3.73-3.78-4.81-6.74-3.46,2.87-6.86,5.09-10.22,6.66-3.36,1.58-7.36,2.37-12,2.37-2.17,0-4.27-.29-6.29-.89s-3.83-1.5-5.41-2.74c-1.58-1.23-2.84-2.79-3.77-4.66-.94-1.87-1.41-4.1-1.41-6.66,0-22.77,38.5-17.18,38.5-37.38.09-1.6-1.27-11.83-12.44-11.83-3.78,0-6.71.63-8.69,1.24-1.25.39-1.71,1.96-.86,2.95,1.29,1.5,2.07,3.43,2.07,5.57,0,5.32-4.83,9.52-10.35,8.44-4.07-.79-7.05-4.71-6.87-8.85.45-10.55,18.25-12.57,26.48-12.57,3.35,0,6.66.32,9.92.96s6.12,1.75,8.59,3.33c2.47,1.58,4.47,3.71,6,6.37s2.3,6.02,2.3,10.07v32.44c0,.79.05,1.65.15,2.59.1.94.3,1.83.59,2.67.3.84.77,1.53,1.41,2.07.64.54,1.56.81,2.74.81,1.08,0,1.95-.4,2.59-1.19.64-.79,1.21-1.58,1.7-2.37ZM625.61,59.2c-7.61,9.41-22.36,10.36-22.36,24.28,0,1.29.17,2.56.52,3.79.35,1.24.86,2.38,1.56,3.42.69,1.04,1.56,1.88,2.59,2.53s2.24.97,3.63.97c2.76,0,5.35-.65,7.77-1.94s4.52-2.88,6.29-4.76v-28.3ZM570.36,103.68c1.58,2.96,2.37,6.76,2.37,11.4,0,3.85-.81,7.38-2.44,10.59-1.63,3.21-3.9,5.97-6.81,8.29-2.91,2.32-6.39,4.12-10.44,5.41-4.05,1.28-8.44,1.92-13.18,1.92-15.72,0-31.4-5.81-31.4-21.15,0-5.51,5.16-9.8,10.91-8.31,2.98.77,5.37,3.26,6.07,6.25.79,3.42-.45,6.58-2.75,8.56-1.15.99-1.59,2.64-.76,3.9,3.12,4.75,9.59,7.34,18.07,7.34,3.65,0,6.89-.44,9.7-1.34s5.18-2.08,7.11-3.57,3.38-3.2,4.37-5.13c.98-1.94,1.48-3.95,1.48-6.03,0-3.28-.72-5.86-2.14-7.74-1.43-1.89-3.38-3.33-5.85-4.31-2.47-1-5.4-1.64-8.81-1.94-3.41-.3-7.04-.5-10.89-.6-2.08-.1-4.39-.29-6.96-.59-2.57-.29-4.96-.96-7.18-2-2.22-1.04-4.08-2.54-5.56-4.52-1.48-1.97-2.22-4.64-2.22-8s1.26-6.41,3.78-8.89c2.35-2.3,5.39-3.75,9.07-4.42-9.49-3.74-16.1-12.03-16.1-21.68,0-13.33,11.84-23.81,27.39-23.81s27.39,10.66,27.39,23.81c0,14.82-11.69,23.81-27.39,23.81-.02,0-.05,0-.07,0-.93.06-1.99.11-3.32.15-1.88.05-3.71.25-5.48.59-1.78.35-3.31.89-4.59,1.63-1.29.74-1.93,1.8-1.93,3.19,0,1.48.69,2.54,2.08,3.18,1.38.65,3.13,1.06,5.26,1.26,2.12.2,4.52.29,7.18.29s5.33.05,8,.15c3.75.2,7.33.67,10.74,1.41,3.41.74,6.41,2,9.04,3.78,2.61,1.77,4.71,4.14,6.29,7.11ZM526.22,57.1c0,11.24,3.18,20.34,10.96,20.34s10.96-9.11,10.96-20.34-3.18-20.34-10.96-20.34-10.96,9.11-10.96,20.34ZM500.31,91.08l1.93,1.04c-.2.5-.59,1.21-1.19,2.15-.59.94-1.41,1.88-2.44,2.81-1.04.94-2.35,1.78-3.93,2.52-1.58.74-3.41,1.11-5.48,1.11-3.75,0-6.69-.77-8.81-2.29-2.12-1.53-3.73-3.78-4.81-6.74-3.46,2.87-6.86,5.09-10.22,6.66-3.36,1.58-7.36,2.37-12,2.37-2.17,0-4.27-.29-6.29-.89s-3.83-1.5-5.41-2.74c-1.58-1.23-2.84-2.79-3.77-4.66-.94-1.87-1.41-4.1-1.41-6.66,0-22.77,38.5-17.18,38.5-37.38.09-1.6-1.27-11.83-12.44-11.83-3.78,0-6.71.63-8.69,1.24-1.25.39-1.71,1.96-.86,2.95,1.29,1.5,2.07,3.43,2.07,5.56,0,5.32-4.83,9.52-10.35,8.44-4.07-.79-7.05-4.71-6.87-8.85.45-10.55,18.25-12.57,26.48-12.57,3.35,0,6.66.32,9.92.96s6.12,1.75,8.59,3.33c2.47,1.58,4.47,3.71,6,6.37s2.3,6.02,2.3,10.07v32.44c0,.79.05,1.65.15,2.59.1.94.3,1.83.59,2.67.3.84.77,1.53,1.41,2.07.64.54,1.56.81,2.74.81,1.08,0,1.95-.4,2.59-1.19.64-.79,1.21-1.58,1.7-2.37ZM474.98,59.2c-7.61,9.41-22.36,10.36-22.36,24.28,0,1.29.17,2.56.52,3.79.35,1.24.86,2.38,1.56,3.42.69,1.04,1.56,1.88,2.59,2.53s2.24.97,3.63.97c2.76,0,5.35-.65,7.77-1.94s4.52-2.88,6.29-4.76v-28.3ZM291.03,91.08l1.93,1.04c-.2.5-.59,1.21-1.19,2.15-.59.94-1.41,1.88-2.44,2.81-1.04.94-2.35,1.78-3.93,2.52-1.58.74-3.41,1.11-5.48,1.11-3.75,0-6.69-.77-8.81-2.29-2.12-1.53-3.73-3.78-4.81-6.74-3.46,2.87-6.86,5.09-10.22,6.66-3.36,1.58-7.36,2.37-12,2.37-2.17,0-4.27-.29-6.29-.89s-3.83-1.5-5.41-2.74c-1.58-1.23-2.84-2.79-3.77-4.66-.94-1.87-1.41-4.1-1.41-6.66,0-22.77,38.5-17.18,38.5-37.38.09-1.6-1.27-11.83-12.44-11.83-3.78,0-6.71.63-8.69,1.24-1.25.39-1.71,1.96-.86,2.95,1.29,1.5,2.07,3.43,2.07,5.56,0,5.32-4.83,9.52-10.35,8.44-4.07-.79-7.05-4.71-6.87-8.85.45-10.55,18.25-12.57,26.48-12.57,3.35,0,6.66.32,9.92.96s6.12,1.75,8.59,3.33c2.47,1.58,4.47,3.71,6,6.37s2.3,6.02,2.3,10.07v32.44c0,.79.05,1.65.15,2.59.1.94.3,1.83.59,2.67.3.84.77,1.53,1.41,2.07.64.54,1.56.81,2.74.81,1.08,0,1.95-.4,2.59-1.19.64-.79,1.21-1.58,1.7-2.37ZM265.71,59.2c-7.61,9.41-22.36,10.36-22.36,24.28,0,1.29.17,2.56.52,3.79.35,1.24.86,2.38,1.56,3.42.69,1.04,1.56,1.88,2.59,2.53s2.24.97,3.63.97c2.76,0,5.35-.65,7.77-1.94s4.52-2.88,6.29-4.76v-28.3ZM153.15,91.08l1.93,1.04c-.2.5-.59,1.21-1.19,2.15-.59.94-1.41,1.88-2.44,2.81-1.04.94-2.35,1.78-3.93,2.52-1.58.74-3.41,1.11-5.48,1.11-3.75,0-6.69-.77-8.81-2.29-2.12-1.53-3.73-3.78-4.81-6.74-3.46,2.87-6.86,5.09-10.22,6.66-3.36,1.58-7.36,2.37-12,2.37-2.17,0-4.27-.29-6.29-.89s-3.83-1.5-5.41-2.74c-1.58-1.23-2.84-2.79-3.77-4.66-.94-1.87-1.41-4.1-1.41-6.66,0-22.77,38.5-17.18,38.5-37.38.09-1.6-1.27-11.83-12.44-11.83-3.78,0-6.71.63-8.69,1.24-1.25.39-1.71,1.96-.86,2.95,1.29,1.5,2.07,3.43,2.07,5.56,0,5.32-4.83,9.52-10.35,8.44-4.07-.79-7.05-4.71-6.87-8.85.45-10.55,18.25-12.57,26.48-12.57,3.35,0,6.66.32,9.92.96s6.12,1.75,8.59,3.33c2.47,1.58,4.47,3.71,6,6.37s2.3,6.02,2.3,10.07v32.44c0,.79.05,1.65.15,2.59.1.94.3,1.83.59,2.67.3.84.77,1.53,1.41,2.07.64.54,1.56.81,2.74.81,1.08,0,1.95-.4,2.59-1.19.64-.79,1.21-1.58,1.7-2.37ZM127.82,59.2c-7.61,9.41-22.36,10.36-22.36,24.28,0,1.29.17,2.56.52,3.79.35,1.24.86,2.38,1.56,3.42.69,1.04,1.56,1.88,2.59,2.53s2.24.97,3.63.97c2.76,0,5.35-.65,7.77-1.94s4.52-2.88,6.29-4.76v-28.3ZM206.91,32.73c-4.33,0-7.98,1.29-11.48,3.85-3.51,2.57-6.44,6.27-8.81,11.11-.1-2.56-.32-5.16-.67-7.77-.35-2.62-.81-5.01-1.41-7.18-1.58.69-3.36,1.33-5.33,1.93-1.98.59-4,1.11-6.08,1.55-2.07.45-4.14.84-6.22,1.19-2.08.35-3.95.62-5.63.81v2.67c2.86,0,5.23.54,7.11,1.63,1.87,1.08,2.81,3.55,2.81,7.4v38.07c0,1.98-.25,3.51-.74,4.59s-1.19,1.92-2.07,2.52-1.93.96-3.11,1.11c-1.19.15-2.52.22-4,.22v2.67h35.99v-2.67c-1.48,0-2.81-.08-4-.22-1.19-.15-2.22-.52-3.11-1.11s-1.58-1.43-2.07-2.51c-.5-1.08-.74-2.61-.74-4.58v-26.45c0-2.17.4-4.6,1.19-7.31.79-2.71,1.9-5.24,3.33-7.61,1.43-2.36,3.06-4.36,4.89-5.98,1.81-1.61,3.79-2.5,4.7-1.65.76.71.24,1.59.24,2.93,0,4.76,3.86,8.61,8.61,8.61s8.61-3.86,8.61-8.61c0-.45-.04-1.1-.2-1.86-.62-2.92-3.04-7.35-11.81-7.35Z"/>
  </g>
</svg>