<?xml version="1.0" encoding="UTF-8"?>
<svg id="Layer_2" data-name="Layer 2" xmlns="http://www.w3.org/2000/svg" viewBox="0 0 234.52 414.54">
  <defs>
    <style>
      .cls-1 {
        fill: #231f20;
      }
    </style>
  </defs>
  <g id="Layer_1-2" data-name="Layer 1">
    <g id="zUvTrd.tif">
      <g>
        <path class="cls-1" d="M234.44,145.03c0,11.84-.01,23.68.02,35.52,0,.89.11,9.29.02,9.75-.13.63-.04,1.31-.04,1.97,0,34.72-.02,69.43,0,104.15.01,27.09-8.06,51.48-24.75,72.8-18.91,24.15-43.69,38.81-73.94,43.79-61.07,10.06-120.06-30.25-132.91-90.83-1.55-7.31-2.46-14.88-2.59-22.34C-.1,279.3-.03,127.81.14,117.73.87,73.73,20.01,39.98,57.14,16.6,72.38,7,89.27,1.84,107.25.4c58.58-4.71,110.63,33.11,124.22,90.3,2.12,8.92,2.99,17.99,2.97,27.15-.02,9.06,0,18.13,0,27.19ZM226.38,183.53v-2.88c0-21.41-.03-42.83.01-64.24.02-10.07-1.42-19.92-4.2-29.58C205.35,28.4,144.06-4.93,85.66,12.58,39.8,26.33,8.07,68.98,8.07,116.87c0,20.54,0,41.08,0,61.61v2.51c8.11.66,15.73,2.07,22.93,5,7.13,2.9,14.04,6.33,21.29,9.63,16.25-17.64,36.81-27.57,61.26-29.18v-39.78c-7.3.63-13.82,2.94-19.55,7.24-8.81,6.62-12.05,15.93-12.26,26.7h-7.77c.67-23.27,13.01-36.29,35.17-41.48-13.15-8.37-25.8-8.02-38.58-.11-1.44-2.2-2.82-4.31-4.23-6.46,6.84-4.41,14.05-7.05,22.08-7.35,8.05-.31,15.49,1.77,22.52,5.64-5.24-11.29-14.42-16.18-26.38-16.53v-7.75c14.71.32,25.8,6.43,33.03,19.53,3.33-6.21,7.76-11.15,13.74-14.59,5.94-3.41,12.33-4.93,19.19-4.84v7.66c-12,.41-21.05,5.31-26.23,16.37,15.17-8.07,29.87-7.31,44.54,1.83-1.52,2.31-2.89,4.41-4.25,6.5-15.31-9.99-31.23-5.85-38.12.33,9.9,2.07,18.63,6.17,25.3,13.89,6.76,7.82,9.33,17.06,9.32,27.21h-7.78c-.06-8.99-2.36-17.05-8.73-23.49-6.26-6.33-14.02-9.37-22.91-10.31v39.75c25.9,1.45,47.28,12.01,64.4,31.49,12.55-7.13,25.75-12.36,40.34-14.35ZM189.95,202.78c28.52,39.85,18.95,91.61-14.11,119.77-32.6,27.77-80.5,28.48-113.69,1.31-16.68-13.65-27.25-31.16-31.11-52.35-4.7-25.81,1.12-49.37,16.81-70.6-12.26-7.54-25.23-12.49-39.78-13.71,0,1.1,0,1.96,0,2.82,0,35.96-.13,71.92.1,107.88.05,7.33.78,14.78,2.3,21.94,11.77,55.8,64.37,93.08,120.83,85.73,23.99-3.12,44.86-13.12,62.1-30.12,21.66-21.36,32.85-47.36,32.95-77.89.12-35.01.03-70.02.03-105.03v-2.76c-13.15,1.9-25.01,6.57-36.43,13ZM183.33,206.77c-1.11.74-1.92,1.37-2.8,1.87-7.48,4.24-14.72,8.99-22.5,12.59-20.05,9.29-40.96,11.83-62.47,5.88-15.28-4.22-29.25-11.15-41.38-21.9-10.09,13.21-15.83,27.89-16.91,44.73,14.34.97,28.29,1.9,42.26,2.84v8.55c-14.23-.93-28.24-1.84-42.41-2.77.87,17.29,6.48,32.67,17,46.33,18.65-15.53,39.66-23.78,63.96-23.81,24.38-.03,45.44,8.3,64.12,23.82,10.61-13.94,16.28-29.47,16.99-46.81-13.91,1-27.49,1.98-41.14,2.96v-8.57c13.7-1.01,27.26-2.01,40.97-3.03-1.18-15.98-6.45-29.93-15.71-42.69ZM176.38,198.87c-10.48-12.99-37.97-25.67-53.34-24.55-.55,15.33-1.09,30.69-1.66,46.56,21-1.45,39.23-8.42,55-22.01ZM176.44,311.41c-15.83-13.62-34.03-20.76-55.05-21.95.55,15.6,1.1,31,1.65,46.4,17.14-.28,38.76-8.79,53.4-24.45ZM59.99,198.53c.18.35.21.51.31.6,14.44,12.56,31.37,19.3,50.24,21.46,2.3.26,2.67-.31,2.72-2.76.23-10.44.53-20.87.75-31.31.08-4.06.01-8.12.01-12.46-20.99,1.25-39.04,9.44-54.04,24.48ZM59.79,311.51c15.22,15.19,33.24,23.47,54.66,24.64-.57-15.77-1.12-31.19-1.67-46.64-20.1,1.73-37.73,8.72-52.99,22Z"/>
        <path class="cls-1" d="M21.14,101.83c1.31-4.07,2.45-7.97,3.84-11.79,1.04-2.86,3.29-3.95,6.36-3.01,2.94.91,6.21,1.22,8.4,3.86.17.21.65.31.94.24,3.92-.87,7.25,1.03,10.6,2.46,2.13.91,2.88,3.04,2.22,5.39-1.1,3.91-2.39,7.77-3.69,11.91-9.6-3.04-19.05-6.03-28.67-9.07ZM47.66,99.37c-1.34-.45-2.42-.82-3.51-1.17-3.2-1.02-3.22-1-3.79,2.54,2.01.64,4.04,1.29,6.19,1.98.37-1.13.68-2.07,1.1-3.35ZM35.16,99.12c.08-1.43.54-3.24.14-3.45-1.62-.86-3.48-1.43-5.3-1.65-.43-.05-1.07,1.7-1.76,2.88,2.42.78,4.39,1.4,6.93,2.22Z"/>
        <path class="cls-1" d="M136.18,57.22c3.92-9.28,7.73-18.31,11.65-27.58,4.02,1.75,7.91,3.35,11.7,5.15,1.66.79,2.79,2.35,2.38,4.29-.83,3.92-2.05,7.71-5.27,10.26.23,4.64-1.6,8.52-4.4,11.93-1.22,1.48-3.19,1.29-4.91.59-3.64-1.48-7.25-3.02-11.15-4.64ZM147.23,48.31c-1.01,2.37-1.87,4.39-2.86,6.73,1.36.3,3.19,1.01,3.38.71,1.04-1.69,1.84-3.58,2.31-5.5.09-.36-1.68-1.18-2.82-1.94ZM152.6,44.95c.59-1.34,1.07-2.38,1.51-3.44,1.31-3.15,1.24-3.26-2.34-4.02-.83,1.96-1.66,3.94-2.56,6.07,1.15.47,2.14.88,3.39,1.39Z"/>
        <path class="cls-1" d="M100.91,56.67c-2.09.89-3.79,1.75-5.58,2.3-.59.18-1.67-.24-2.1-.74-2.86-3.3-5.61-6.71-8.7-9.92,1.74,4.24,3.48,8.49,5.31,12.95-2.08.88-4.05,1.72-6.24,2.64-3.83-9.24-7.59-18.29-11.45-27.58,2.16-.9,4.14-1.73,6.25-2.61,1.76,4.19,3.46,8.24,5.16,12.3.12-.03.24-.07.37-.1-.39-4.61-.79-9.23-1.19-13.99,2.15-.89,4.28-1.76,6.7-2.76.35,4.61.59,8.94,1.07,13.24.14,1.27.71,2.66,1.5,3.65,2.8,3.53,5.78,6.92,8.91,10.63Z"/>
        <path class="cls-1" d="M68.17,49.19c-1.75,1.43-3.37,2.76-5.17,4.23-.5-.57-.87-1.27-1.45-1.57-.55-.28-1.54-.43-1.94-.12-.4.31-.31,1.25-.42,1.92,0,.05.08.12.12.18q2.66,3.99,6.44,1.1c3.15-2.41,5.34-2.18,7.9.89,1.41,1.68,2.81,3.36,4.11,5.13,2.14,2.91,1.81,5.34-.94,7.65-1.45,1.22-2.91,2.44-4.43,3.58-2.76,2.08-5.21,1.83-7.5-.77-.86-.98-1.64-2.03-2.53-3.14,1.75-1.42,3.39-2.74,5.17-4.18.49.53.87,1.21,1.46,1.5.56.29,1.43.42,1.97.18,1-.44,1.06-1.29.28-2.12-.1-.11-.18-.23-.27-.34-3.2-3.92-2.23-3.61-5.86-.78-3.39,2.65-5.48,2.46-8.19-.85-1.43-1.75-2.9-3.48-4.23-5.31-2-2.76-1.71-5.08.86-7.32,1.48-1.3,3.02-2.53,4.59-3.72,2.81-2.14,5.14-1.92,7.5.71.87.96,1.63,2.02,2.53,3.16Z"/>
        <path class="cls-1" d="M66.89,76.1c-1.32,1.93-2.55,3.72-3.83,5.59-1.36-.6-2.61-1.15-4.15-1.82-1.07,1.55-2.16,3.14-3.31,4.8,1.08,1.17,2.06,2.21,3.1,3.34-1.22,1.77-2.36,3.44-3.73,5.42-7.06-7.47-13.99-14.79-21.01-22.2,1.58-2.3,3.09-4.51,4.68-6.82,9.42,3.9,18.74,7.76,28.24,11.7ZM53.53,77.39c-3.02-1.37-5.7-2.58-8.02-3.63,1.87,2.05,3.89,4.26,6.02,6.59.65-.97,1.25-1.85,2-2.96Z"/>
        <path class="cls-1" d="M177.68,45.21c2.18,1.82,4.18,3.49,6.36,5.31-4.72,8.98-9.42,17.9-14.24,27.06-1.87-1.56-3.52-2.94-5.23-4.36.72-1.3,1.39-2.49,2.2-3.95-1.44-1.22-2.92-2.46-4.47-3.77-1.23.94-2.37,1.81-3.63,2.77-1.64-1.37-3.23-2.7-5.05-4.23,8.09-6.33,15.99-12.52,24.06-18.83ZM174.53,55.75c-.09-.1-.19-.21-.28-.31-2.46,2.05-4.92,4.1-7.5,6.25,1.07.87,1.96,1.59,2.97,2.41,1.65-2.86,3.23-5.61,4.81-8.35Z"/>
        <path class="cls-1" d="M117.06,48.84c.24,1.98.46,3.77.71,5.82-5.11.6-10.06,1.19-15.27,1.81-1.17-9.91-2.32-19.66-3.52-29.79,5.02-.6,9.88-1.19,14.9-1.79.25,2.05.47,3.84.71,5.84-2.62.35-5.12.68-7.98,1.06.19,1.87.38,3.71.6,5.82,2.29-.23,4.49-.46,6.67-.68.12.16.25.27.28.39q1.12,5.48-4.44,6.08c-.49.05-.99.11-1.74.2.21,1.97.41,3.82.65,6.04,2.77-.27,5.48-.53,8.44-.81Z"/>
        <path class="cls-1" d="M130.23,56.4c-2.3-.29-4.44-.55-6.82-.85,1.04-7.97,2.07-15.81,3.12-23.77-1.59-.28-2.99-.53-4.64-.82.23-1.84.45-3.61.72-5.77,5.4.7,10.7,1.39,16.31,2.12-.24,1.96-.47,3.8-.72,5.82-1.57-.15-3-.28-4.75-.45-1.06,7.82-2.12,15.65-3.21,23.72Z"/>
        <path class="cls-1" d="M194.82,61.86c1.35,1.94,2.55,3.66,3.89,5.57-6.54,4.56-13.04,9.08-19.73,13.74,1.43,2.09,2.81,4.1,4.32,6.31-1.53,1.1-2.98,2.14-4.7,3.38-2.76-3.96-5.48-7.87-8.32-11.95,8.21-5.71,16.27-11.31,24.55-17.06Z"/>
        <path class="cls-1" d="M207,81.89c.83,2.12,1.59,4.07,2.47,6.32-7.44,2.9-14.8,5.76-22.36,8.71.89,2.42,1.73,4.7,2.66,7.21-1.79.7-3.46,1.35-5.36,2.1-1.73-4.44-3.43-8.82-5.25-13.52,9.31-3.61,18.49-7.18,27.84-10.81Z"/>
        <path class="cls-1" d="M202.71,148.4c-3.99,2-5.68,4.76-2.94,8.98-.24.09-.49.19-.73.28-1.61-.93-3.23-1.86-4.87-2.81-1.58.97-3.16,1.95-4.75,2.93l-.46-.28c.32-1.22.56-2.47.99-3.66.49-1.35.29-2.29-1-3.09-1.07-.66-2-1.57-3.4-2.7,2.47-.32,4.78,0,6.14-.99,1.29-.93,1.6-3.24,2.58-5.49.62,1.56,1.16,2.58,1.43,3.66.41,1.65,1.24,2.48,3.03,2.37,1.13-.07,2.28.16,3.42.26.19.17.37.34.56.52Z"/>
        <path class="cls-1" d="M45.32,158.14c-1.75-1.11-2.97-1.8-4.1-2.62-.9-.65-1.59-.66-2.5.03-1.12.84-2.39,1.48-4.02,2.15,2.15-4.25,1.29-7.39-3.29-9.3.16-.16.32-.31.47-.47,1.25-.12,2.49-.35,3.74-.32,1.53.03,2.37-.56,2.77-2.06.31-1.17.89-2.26,1.58-3.97.66,1.62,1.22,2.69,1.53,3.82.43,1.55,1.25,2.29,2.92,2.21,1.13-.06,2.28.17,3.74.77-.89.74-1.73,1.54-2.67,2.2-1.27.89-1.88,1.83-1.14,3.46.48,1.05.56,2.28.96,4.1Z"/>
        <path class="cls-1" d="M105.53,388.62c-1.36-.12-2.36-.21-3.59-.32.8-10.21,1.58-20.27,2.36-30.22,2.26-.69,3.11.16,3.61,2.09,1.57,6.05,3.31,12.05,5.14,18.62.47-7.05.89-13.52,1.32-20.02h3.48c-.8,10.27-1.59,20.4-2.37,30.45-2.24.48-3.05-.43-3.51-2.34-1.36-5.59-2.91-11.14-4.39-16.7-.1-.39-.29-.77-.61-1.61-.5,6.92-.96,13.34-1.44,20.04Z"/>
        <path class="cls-1" d="M152.58,351.98c1.28-.61,2.32-1.11,3.49-1.67,3.05,6.34,6.05,12.57,9.05,18.8.6,1.25,1.25,2.47,1.89,3.7.81,1.57,1.94,2.36,3.72,1.45,1.8-.92,1.45-2.37.81-3.76-1.93-4.17-3.92-8.3-5.9-12.44-1.57-3.28-3.14-6.55-4.81-10.02,1.13-.57,2.14-1.08,3.38-1.7.7,1.4,1.39,2.73,2.04,4.08,2.63,5.45,5.25,10.9,7.86,16.36.35.72.66,1.46.92,2.22,1.68,4.86-1.1,9.02-6.26,8.92-1.45-.03-3.23-1.06-4.21-2.2-1.44-1.68-2.38-3.81-3.37-5.83-2.89-5.88-5.69-11.8-8.63-17.9Z"/>
        <path class="cls-1" d="M152.51,363.8c-1.34.41-2.37.72-3.57,1.08-.59-1.84-1.13-3.64-1.73-5.41-.46-1.35-1.2-2.42-2.88-1.99-1.68.43-2.24,1.77-1.85,3.22,1.74,6.47,3.59,12.91,5.48,19.34.38,1.28,1.33,2.14,2.85,1.76,1.61-.4,2.06-1.66,1.8-3.05-.47-2.56-1.13-5.09-1.75-7.76-1.01.16-1.77.28-2.68.43-.26-.75-.51-1.49-.85-2.5,2.03-.58,3.94-1.13,6.04-1.73,1.47,5.24,2.88,10.27,4.3,15.29-.14.22-.28.43-.41.65-.91-.37-1.81-.74-2.76-1.12-.8,2.04-2.66,3.06-5.16,3.04-2.54-.03-4.22-1.55-4.91-3.72-2.04-6.45-4.08-12.92-5.61-19.51-.88-3.8.72-5.94,3.91-7.07,4-1.42,6.38-.37,7.97,3.63.67,1.68,1.16,3.44,1.82,5.41Z"/>
        <path class="cls-1" d="M132.48,375.07c-1.17.08-1.88.13-2.83.19-.07-.89-.14-1.72-.22-2.7,2.07-.22,4-.43,6.13-.66.53,5.31,1.05,10.51,1.64,16.47-1.28-.57-2.09-.93-2.9-1.29-.09-.31-.17-.61-.26-.92-.12.35-.14.8-.37,1.05-2.79,2.91-7.35,2.3-8.79-1.47-.99-2.6-1.31-5.5-1.65-8.3-.52-4.34-.98-8.7-1.13-13.07-.13-3.85,1.76-6,5.08-6.54,4.26-.69,6.3.63,7.26,4.89.4,1.76.57,3.58.88,5.64-1.27.19-2.38.36-3.7.55-.28-2.01-.51-3.86-.8-5.7-.22-1.41-.79-2.57-2.49-2.42-1.69.15-2.47,1.25-2.36,2.84.33,4.73.71,9.45,1.16,14.17.19,2.02.41,4.09,1.01,6.01.27.86,1.57,1.96,2.35,1.92.78-.04,2.08-1.32,2.14-2.13.19-2.78-.06-5.59-.15-8.52Z"/>
        <path class="cls-1" d="M81.43,363.68c-1.34-.63-2.37-1.11-3.48-1.63.8-1.98,1.61-3.77,2.26-5.62.46-1.32.9-2.81-.8-3.62-1.73-.82-2.89.26-3.53,1.64-2.76,5.94-5.44,11.92-8.04,17.93-.54,1.26-.39,2.68,1.16,3.33,1.46.61,2.42-.29,3.05-1.42,1.14-2.02,2.15-4.12,3.26-6.29,1.08.47,2.12.93,3.64,1.6-1.55,2.64-2.84,5.31-4.58,7.66-1.69,2.27-3.71,2.48-6.46,1.32-2.78-1.17-4.1-2.97-3.83-5.69.16-1.57.53-3.19,1.15-4.64,1.97-4.62,4.07-9.19,6.2-13.74.55-1.17,1.28-2.31,2.13-3.28,2.08-2.38,4.41-2.67,7.49-1.08,2.79,1.43,3.81,3.41,2.95,6.49-.65,2.35-1.66,4.6-2.57,7.05Z"/>
        <path class="cls-1" d="M85.38,378.81c-.33.75-.7,1.53-1.03,2.32q-1.29,3.11-4.72,1.83c1.96-4.46,3.92-8.91,5.87-13.36,1.84-4.2,3.78-8.36,5.49-12.61.73-1.83,1.6-2.6,3.5-1.73.59.27,1.24.39,2.09.64-.8,10.25-1.6,20.51-2.41,30.8q-3.45-.46-3.26-3.48c.22-3.62-.04-3.84-5.53-4.4ZM91.46,377.1c.49-5.23.95-10.17,1.41-15.1-.13-.02-.26-.05-.4-.07-1.93,4.58-3.86,9.15-5.86,13.89,1.66.44,3.06.81,4.84,1.28Z"/>
        <path class="cls-1" d="M83.97,241.63c4.23,0,8.31-.08,12.39.03,1.98.05,3.68,1.11,4.06,3.09.76,3.94,1.07,7.93-.89,11.47,1.96,4.29,1.98,8.62.45,12.78-.42,1.16-2.59,2.23-4.03,2.35-3.91.32-7.86.11-11.97.11v-29.84ZM90.6,254.05c1.26-.32,3.12-.43,3.2-.88.34-1.82.33-3.78,0-5.6-.08-.43-1.95-.53-3.19-.82v7.3ZM90.6,258.97v7.41c1.23-.3,3.1-.41,3.18-.84.34-1.88.34-3.88.02-5.76-.07-.41-1.95-.52-3.2-.81Z"/>
        <path class="cls-1" d="M125.59,271.37h-6.82c-.28-1.41-.55-2.75-.84-4.17h-5.84c-.32,1.39-.64,2.78-.97,4.2h-6.61c1.68-7.87,3.34-15.63,4.99-23.4.03-.14.09-.28.12-.42,1.47-6.6,1.73-6.8,8.51-5.92.49.06,1.18.76,1.3,1.27,2.08,9.39,4.09,18.8,6.16,28.44ZM116.88,261.14c-.57-3.16-1.11-6.14-1.65-9.13-.16.02-.33.04-.49.06-.53,2.98-1.05,5.95-1.61,9.07h3.74Z"/>
        <path class="cls-1" d="M129.03,271.34v-29.57h6.54v23.78h7.67v5.79h-14.21Z"/>
        <path class="cls-1" d="M147.01,271.34v-29.59h6.49v29.59h-6.49Z"/>
      </g>
    </g>
  </g>
</svg>