<?xml version="1.0" encoding="UTF-8"?>
<svg id="Layer_2" data-name="Layer 2" xmlns="http://www.w3.org/2000/svg" viewBox="0 0 530.29 77.16">
  <defs>
    <style>
      .cls-1 {
        fill: #010101;
      }
    </style>
  </defs>
  <g id="Layer_1-2" data-name="Layer 1">
    <g>
      <path class="cls-1" d="M457.26,54.05c36.41-2.83,27.62-22.49,24.1-26.37-3.24-3.6-8-5.61-14.04-5.61-4.59,0-8.72,1.28-12.07,3.5-3.51,2.35-6.13,5.73-8.09,10.08-1.84,4.32-2.63,9.48-2.63,15.27,0,5.1.79,9.78,2.63,13.76,1.88,3.9,4.58,7.02,8.09,9.25,3.44,2.05,7.67,3.24,12.39,3.24,3.16,0,6.11-.56,8.72-1.86,2.54-1.38,4.75-3.04,6.43-5.16,1.72-2.05,3-4.11,3.85-6.51l-2.13-.86c-3.07,6.81-8.16,10.16-14.84,10.16-2.64,0-5.09-.86-7.39-2.64-2.48-1.72-4.43-4.41-5.9-7.78-1.48-3.31-2.1-7.1-2.1-11.6,0-6.17,0-12.96,2.44-18.51,1.13-2.89,2.64-4.92,4.42-6.24,1.76-1.34,3.6-2.08,5.8-2.08s3.85.97,5.45,2.5c1.51,1.68,2.59,3.75,3.25,6.72,1.95,7.85-6.06,17.62-18.38,20.75"/>
      <path class="cls-1" d="M350.38,25.06c3.46,1.96,6.08,4.98,8.29,9.11,2,4.17,2.89,9.4,2.89,15.64s-.88,11.42-2.89,15.42c-2.21,4.09-4.83,7.11-8.29,9.08-3.33,1.98-7.36,2.87-11.74,2.87s-8.5-.89-11.8-2.87c-3.62-1.96-6.25-4.98-8.29-9.08-2.03-4-2.9-9.21-2.9-15.42s.87-11.47,2.9-15.64c2.04-4.13,4.67-7.15,8.29-9.11,3.31-1.83,7.27-2.99,11.8-2.99s8.42,1.15,11.74,2.99M329.02,30.33c-2.4,4.27-3.59,10.82-3.59,19.47s1.19,14.98,3.59,19.22c2.27,4.06,5.41,6.14,9.61,6.14s7.17-2.08,9.64-6.14c2.1-4.23,3.44-10.59,3.44-19.22s-1.34-15.2-3.44-19.47c-2.47-4.05-5.65-6.06-9.64-6.06-4.2,0-7.34,2.01-9.61,6.06"/>
      <path class="cls-1" d="M309.36,62.77c-.93,3.77-2.09,6.54-3.66,8.25-1.31,1.72-3.26,2.46-5.29,2.46-2.28,0-3.84-.55-4.82-2.02-1.23-1.32-1.75-3.48-1.75-6.58V25.72h15.11v-2.04h-15.11V3.98h-2.28c0,14.76-11.12,19.69-16.56,19.69v2.04h9.76v33.94c0,3.57.26,6.46.87,8.67.65,2.27,1.71,4,3.11,5.53,1.05,1.19,2.37,1.84,3.88,2.51,1.45.48,3.41.79,5.68.79,6.95,0,11.24-4.41,13.03-13.28l-1.96-1.11Z"/>
      <path class="cls-1" d="M382.3,65.22V23.68h-16.78v2.04c2.92,0,4.71.67,5.87,2.07,1.35,1.49,1.76,3.73,1.76,6.82v31.75c0,1.93-.27,3.37-.87,4.38-.34,1.07-1.12,1.86-2.48,2.34-.96.41-2.35.41-4.29.41v2.22h27.54v-2.22c-3.62,0-6.35-.41-8-1.68-1.86-1.21-2.76-3.48-2.76-6.59"/>
      <path class="cls-1" d="M249.99,2.89c-10.36,0-14.07,8.48-14.07,13.76,0,3.64,1.15,6.57,3.25,8.82,2.29,2.12,5.02,4.27,7.9,6.06,2.91,1.78,4.86,3.08,5.83,3.67,4.31,2.57,7.75,4.99,10.18,6.96,2.29,1.83,4.32,4.04,5.93,6.77,1.41,2.56,2.19,5.62,2.19,8.95,0,4.21-.97,7.82-2.92,10.71-2.01,2.89-4.56,4.9-7.64,6.47-3.25,1.45-6.96,2.11-11,2.11-3.27,0-5.91-.31-8-1-2.02-.66-4.04-1.55-5.82-2.68-1.48-1.01-2.62-1.41-3.6-1.41-.62,0-2.12.86-2.12,3.63h-2.36v-23.48h2.36c.55,6.77,2.68,12.35,5.58,16.55,2.71,4.31,7.19,6.39,13.27,6.39,2.26,0,4.38-.55,6.5-1.49,1.95-.92,3.51-2.41,4.76-4.38,1.22-2.1,1.96-4.61,1.96-7.63,0-2.67-.74-4.9-1.96-6.94-1.41-2.08-2.91-4.06-5.17-5.7-2.14-1.71-5.05-3.67-8.71-5.91-3.97-2.37-7.24-4.46-9.65-6.45-2.52-2.06-4.56-4.26-5.94-6.73-1.67-2.66-2.47-5.84-2.47-9.49s.85-7.02,2.62-9.7c5.78-8.52,16.28-7.84,19.09-7.84"/>
      <path class="cls-1" d="M510.74,22.07c-2.4,0-7.28,2.46-7.28,9.64,0,2.45.86,4.48,2.34,6.05,1.7,1.53,3.61,2.98,5.74,4.38,2.46,1.41,3.96,2.41,4.91,3.2,3.1,1.96,5.64,3.67,7.48,5.31,1.86,1.56,3.44,3.32,4.65,5.36,1.12,2.05,1.69,4.28,1.69,6.99,0,3.04-.66,5.58-2.39,7.73-1.49,2.03-3.68,3.65-6.15,4.76-2.74,1.1-5.58,1.67-8.72,1.67s-5.61-.41-8.11-1.46c-1.23-.65-2.57-1.55-4.02-2.62-.35-.33-.71-.48-.99-.48-1.07,0-1.57,1.33-2.02,3.77h-2.55c.34-3.77.52-10.48.52-20.2h2.48c.32,4.12,1.05,7.72,1.89,10.38.93,2.74,2.49,4.92,4.34,6.39,1.85,1.44,4.58,2.22,7.76,2.22,1.28,0,2.98-.33,4.12-1.01,1.59-.67,2.65-1.68,3.52-3.13.88-1.3,1.23-3.18,1.23-5.53,0-1.86-.35-3.65-1.34-4.97-.85-1.53-2.18-2.76-3.7-4.01-1.47-1.09-3.57-2.53-6.21-4.29-3.53-2-6.06-3.91-7.75-5.2-1.75-1.3-3.36-2.9-4.46-4.87-1.36-1.97-1.89-4.32-1.89-6.83,0-2.91.73-5.39,2.03-7.4,1.25-1.75,3.18-3.38,5.47-4.24,2.24-1.16,4.64-1.61,7.37-1.61"/>
      <path class="cls-1" d="M434.33,73.08c-1.17-.48-1.97-1.27-2.5-2.34-.44-1.01-.7-2.45-.7-4.38V23.68h-16.87v2.04c2.8,0,4.82.67,6,2.07,1.11,1.49,1.64,3.73,1.64,6.82v31.75c0,1.93-.17,3.37-.68,4.38-.49,1.07-1.35,1.86-2.4,2.34-1.15.41-2.72.41-4.57.41v2.22h24.54v-2.22c-1.88,0-3.52,0-4.46-.41"/>
      <path class="cls-1" d="M403.15,24.08c-4.85-4.23-13.79-1.74-17.66,9.75,0,.14,1.07-1.34,2.55-2.54,2.29-1.79,5.76-2.5,6.41-.97h0c.78,2.22,2.92,3.83,5.34,3.83,3.04,0,5.66-2.6,5.66-5.65,0-1.85-.97-3.42-2.3-4.42"/>
      <path class="cls-1" d="M526.41,37.77c3.22-4.06,1.32-11.37-8.03-14.42,0,0,1.18.73,2.14,2.12,1.37,1.8,2.02,4.71.52,5.16-1.63.67-2.81,2.34-2.81,4.27,0,2.45,1.94,4.5,4.56,4.5,1.41,0,2.62-.58,3.61-1.63"/>
      <path class="cls-1" d="M267.61,21.34c3.78-5.01.96-13.87-10.72-17.06-.11-.29,1.3.89,2.7,2.42,1.78,2.04,2.73,5.62,1.07,6.32-2.12.82-3.44,2.97-3.35,5.43.1,3.24,2.79,5.46,5.9,5.35,1.85-.12,3.25-1.04,4.4-2.45"/>
      <path class="cls-1" d="M433,6.5c0-3.61-2.91-6.5-6.43-6.5s-6.59,2.89-6.59,6.5,2.98,6.51,6.59,6.51,6.43-2.94,6.43-6.51"/>
      <path class="cls-1" d="M0,3.98v2.04c2.22,0,3.78.48,4.87.9.86.25,1.64,1.13,2.01,2.37.33,1.11.6,3.02.6,5.5v50.23c0,2.51-.26,4.3-.6,5.58-.37,1.21-1.15,1.88-2.01,2.34-1.09.36-2.65.55-4.87.74v2.03h34.4v-2.22c-3.12,0-5.37-.19-6.87-.71-1.55-.44-2.57-1.3-3.05-2.41-.65-1.26-.78-3.26-.78-6.01V13.53c0-2.16.13-3.76.41-4.72.37-1.01.85-1.63,1.87-1.89.93-.42,2.52-.57,4.56-.57h3.42c3.25,0,6.06.57,8.1,1.9,2.36,1.37,4.12,3.58,5.63,6.54,1.57,3.05,2.8,7.11,3.7,12.23h2.17V3.98H0Z"/>
      <path class="cls-1" d="M193.88,75.7v-2.22c1.59,0,2.89,0,3.87-.41.78-.48,1.58-1.27,2.02-2.34.45-1.01.62-2.45.62-4.38v-31.98c0-3.08-.62-5.35-1.48-6.9-.99-1.31-2.64-2.01-5.03-2.01v-1.79h20.93v36.54c0,10.58,0,15.49-20.93,15.49"/>
      <path class="cls-1" d="M216.11,8.4c0,4.61-3.87,8.37-8.49,8.37s-8.29-3.76-8.29-8.37,3.7-8.4,8.29-8.4,8.49,3.79,8.49,8.4"/>
      <path class="cls-1" d="M73.36,52.52c8.35,0,27.38-1.12,24.19-18.36-1.21-7.58-9.14-12.26-17.86-12.26-4.93,0-9.07,1.19-12.94,3.19-3.68,2.18-6.69,5.24-8.7,9.52-2.12,4.23-3.1,9.37-3.1,15.62,0,5.79.89,11,2.74,15,2.2,4.07,4.83,7.05,8.27,8.93,3.51,2.12,7.53,3.01,12.32,3.01,3.4,0,6.58-.79,9.33-2.34,2.92-1.34,5.02-3.36,6.93-5.73,1.78-2.31,2.99-4.75,3.79-7.44l-1.69-.91c-3.22,5.38-7.82,8.02-13.38,8.02-2.17,0-4.46-.67-6.34-1.98-2.02-1.3-3.66-3.56-4.99-6.5-1.15-2.91-1.64-6.7-1.64-11.12v-2.46c.06-9.43,1.31-15.42,2.72-18.13,1.66-3.12,3.68-4.5,6.06-4.5s3.91,1.79,5.3,5.43c2.73,6.86,2.53,19.85-11.02,23.01"/>
      <path class="cls-1" d="M154.28,30.33c3.13-2.42,5.99-3.94,8.29-3.94s4.07.62,4.83,2.12c.96,1.42,1.34,3.46,1.34,6.39v25.32c0,10.58,0,15.49,21.19,15.49v-2.22c-1.75,0-2.9,0-3.89-.41-.94-.48-1.58-1.27-1.91-2.28-.53-1.07-.87-2.51-.87-4.44v-27.25c0-3.39-.12-6.14-.64-8.25-.37-2.05-1.29-3.59-2.35-4.98-2.31-2.65-5.99-3.98-11.21-3.98-10.07,0-13.34,5.79-14.77,8.43"/>
      <path class="cls-1" d="M123.34,70.74c-.27-1.01-.35-2.45-.35-4.38V23.68h-21v1.79c2.24,0,4.03.7,4.92,2.01.92,1.55,1.39,3.81,1.39,6.9v31.98c0,1.93-.31,3.37-.56,4.38-.41,1.07-1.15,1.86-2.07,2.34-.9.41-2.14.41-3.68.41v2.22h25.74v-2.22c-1.14,0-2.07,0-2.82-.41-.58-.48-1.23-1.27-1.56-2.34"/>
      <path class="cls-1" d="M153.68,39.11c0-3.39-.16-6.14-.72-8.25-.39-2.05-1.21-3.59-2.27-4.98-2.29-2.65-6.24-3.98-11.1-3.98-10.27,0-13.54,5.79-14.96,8.43,2.99-2.42,6.02-3.94,8.53-3.94,2.21,0,3.91.62,4.76,2.12.73,1.42,1.25,3.46,1.25,6.39v31.46c0,1.93-.28,3.37-.52,4.44-.37,1.01-.73,1.8-1.52,2.28-.68.41-1.65.41-2.9.41v2.22h25.35v-2.22c-1.39,0-2.57,0-3.42-.41-.82-.48-1.56-1.27-1.88-2.28-.4-1.07-.59-2.51-.59-4.44v-27.25Z"/>
      <path class="cls-1" d="M42.06,31.97c-5.52-3.17-13.84,1.11-15.34,13.16,0,0,.8-1.57,2.05-3.17,1.76-1.99,5.18-3.41,6.15-1.99h0c1.3,1.92,3.44,2.92,5.8,2.47,3.15-.55,5.08-3.6,4.3-6.73-.22-1.68-1.39-3.02-2.97-3.74"/>
    </g>
  </g>
</svg>