<?xml version="1.0" encoding="UTF-8"?>
<svg id="Layer_2" data-name="Layer 2" xmlns="http://www.w3.org/2000/svg" viewBox="0 0 566.91 326.99">
  <defs>
    <style>
      .cls-1 {
        fill: #231f20;
      }
    </style>
  </defs>
  <g id="Layer_1-2" data-name="Layer 1">
    <g>
      <g>
        <path class="cls-1" d="M61.89,235.1c-1.28,7.89-4.56,14.01-9.85,18.35-5.29,4.34-11.9,6.51-19.82,6.51-9.99,0-17.86-3.44-23.6-10.32-5.75-6.88-8.62-16.01-8.62-27.41s2.89-20.53,8.67-27.41c5.78-6.88,13.63-10.32,23.55-10.32,7.96,0,14.57,2.18,19.85,6.53,5.27,4.36,8.55,10.46,9.83,18.32h-12.48c-.98-4.39-2.98-7.8-5.99-10.24-3.01-2.44-6.75-3.66-11.2-3.66-6.32,0-11.14,2.44-14.47,7.32-3.32,4.88-4.99,11.37-4.99,19.45s1.66,14.57,4.99,19.43c3.32,4.86,8.15,7.29,14.47,7.29,4.45,0,8.2-1.23,11.22-3.69,3.03-2.46,5.02-5.84,5.97-10.17h12.48Z"/>
        <path class="cls-1" d="M101.94,195.46c-6.32,0-11.14,2.44-14.47,7.32-3.32,4.88-4.99,11.37-4.99,19.45s1.66,14.57,4.99,19.43c3.32,4.86,8.15,7.29,14.47,7.29s11.09-2.4,14.42-7.2c3.32-4.8,4.99-11.31,4.99-19.53s-1.65-14.69-4.96-19.52c-3.31-4.83-8.12-7.25-14.44-7.25M101.94,259.96c-9.99,0-17.86-3.44-23.6-10.32-5.75-6.88-8.62-16.01-8.62-27.41s2.89-20.53,8.67-27.41c5.78-6.88,13.63-10.32,23.55-10.32s17.82,3.45,23.6,10.34c5.78,6.89,8.67,16.02,8.67,27.38s-2.87,20.49-8.62,27.39c-5.75,6.89-13.63,10.34-23.65,10.34"/>
        <polygon class="cls-1" points="192.44 258.43 158.05 207.35 157.86 207.35 157.86 258.43 145.97 258.43 145.97 185.98 157.76 185.98 191.95 236.72 192.14 236.72 192.14 185.98 204.03 185.98 204.03 258.43 192.44 258.43"/>
        <path class="cls-1" d="M213.18,236.38h12.38c1.51,8.38,6.66,12.58,15.47,12.58,4.36,0,7.81-1,10.37-3,2.56-2,3.83-4.81,3.83-8.45,0-2.88-.88-5.11-2.65-6.7-1.77-1.59-6.01-3.22-12.72-4.89-9.6-2.33-16.09-5.18-19.48-8.57-3.39-3.39-5.08-7.71-5.08-12.94,0-6.02,2.46-10.85,7.37-14.47,4.91-3.62,11.07-5.43,18.47-5.43s13.44,1.81,17.93,5.43c4.49,3.62,7.11,8.82,7.86,15.6h-12.38c-1.02-6.78-5.48-10.17-13.41-10.17-3.73,0-6.84.79-9.33,2.36-2.49,1.57-3.73,3.8-3.73,6.68,0,2.55.96,4.61,2.87,6.17,1.91,1.55,5.98,3.05,12.21,4.49,9.59,2.1,16.12,4.92,19.58,8.47,3.45,3.55,5.18,8.21,5.18,13.97,0,6.65-2.5,12.05-7.51,16.21-5.01,4.16-11.46,6.24-19.36,6.24s-14.51-2.03-19.26-6.09c-4.75-4.06-7.61-9.89-8.6-17.49"/>
        <path class="cls-1" d="M337.25,235.1c-1.28,7.89-4.56,14.01-9.85,18.35-5.29,4.34-11.9,6.51-19.82,6.51-9.99,0-17.86-3.44-23.6-10.32-5.75-6.88-8.62-16.01-8.62-27.41s2.89-20.53,8.67-27.41c5.78-6.88,13.63-10.32,23.55-10.32,7.96,0,14.57,2.18,19.85,6.53,5.27,4.36,8.55,10.46,9.82,18.32h-12.48c-.98-4.39-2.98-7.8-5.99-10.24-3.01-2.44-6.75-3.66-11.2-3.66-6.32,0-11.14,2.44-14.47,7.32-3.32,4.88-4.99,11.37-4.99,19.45s1.66,14.57,4.99,19.43c3.32,4.86,8.15,7.29,14.47,7.29,4.45,0,8.2-1.23,11.22-3.69,3.03-2.46,5.02-5.84,5.97-10.17h12.48Z"/>
        <rect class="cls-1" x="347.19" y="185.98" width="12.48" height="72.46"/>
        <path class="cls-1" d="M403.65,195.46c-6.32,0-11.14,2.44-14.47,7.32-3.32,4.88-4.99,11.37-4.99,19.45s1.66,14.57,4.99,19.43c3.32,4.86,8.15,7.29,14.47,7.29s11.09-2.4,14.42-7.2c3.32-4.8,4.99-11.31,4.99-19.53s-1.65-14.69-4.96-19.52c-3.31-4.83-8.12-7.25-14.44-7.25M403.65,259.96c-9.99,0-17.86-3.44-23.6-10.32-5.75-6.88-8.62-16.01-8.62-27.41s2.89-20.53,8.67-27.41c5.78-6.88,13.63-10.32,23.55-10.32s17.82,3.45,23.6,10.34c5.78,6.89,8.67,16.02,8.67,27.38s-2.87,20.49-8.62,27.39c-5.75,6.89-13.63,10.34-23.65,10.34"/>
        <path class="cls-1" d="M504.31,229.85c0,9.69-2.63,17.14-7.88,22.33-5.26,5.19-12.29,7.78-21.1,7.78s-15.88-2.59-21.1-7.78c-5.22-5.19-7.83-12.63-7.83-22.33v-43.87h12.43v43.87c0,6.42,1.38,11.23,4.13,14.44,2.75,3.21,6.88,4.81,12.38,4.81s9.57-1.6,12.3-4.81c2.73-3.21,4.1-8.02,4.1-14.44v-43.87h12.58v43.87Z"/>
        <path class="cls-1" d="M512.18,236.38h12.38c1.51,8.38,6.66,12.58,15.47,12.58,4.36,0,7.81-1,10.36-3,2.56-2,3.83-4.81,3.83-8.45,0-2.88-.88-5.11-2.65-6.7-1.77-1.59-6.01-3.22-12.72-4.89-9.59-2.33-16.09-5.18-19.48-8.57-3.39-3.39-5.08-7.71-5.08-12.94,0-6.02,2.46-10.85,7.37-14.47,4.91-3.62,11.07-5.43,18.47-5.43s13.44,1.81,17.93,5.43c4.49,3.62,7.11,8.82,7.86,15.6h-12.38c-1.02-6.78-5.49-10.17-13.41-10.17-3.73,0-6.84.79-9.33,2.36-2.49,1.57-3.73,3.8-3.73,6.68,0,2.55.96,4.61,2.87,6.17,1.91,1.55,5.98,3.05,12.21,4.49,9.6,2.1,16.12,4.92,19.58,8.47,3.45,3.55,5.18,8.21,5.18,13.97,0,6.65-2.51,12.05-7.52,16.21-5.01,4.16-11.46,6.24-19.35,6.24s-14.51-2.03-19.26-6.09c-4.75-4.06-7.61-9.89-8.6-17.49"/>
      </g>
      <g>
        <path class="cls-1" d="M381.13,3.56c-3.73,1.66-6.62-.08-11.17,9.25-14.3,29.33-25.42,53.13-38.66,87.39.38-28.13,5.41-50.51,8.42-77.91.56-5.05,1.33-12,1.21-17.24-.09-4.02-4.11-4.56-12.22-.57-4.5,2.22-9.92,2.03-11.99,7.38-8.81,22.78-29.15,86.12-38.59,121.93-2.27,8.61,6.26,10.04,8.82,1.21,6.22-21.34,20.41-68.56,28.86-92.89-.85,22.27-6.93,57.47-4.09,75.94.9,5.81,6.32,8.32,9.11,13.23,1.99,3.5,5.18,3.85,6.93-.93,8.26-22.52,24.36-62.24,39.89-94.02-3.04,13.99-14.72,73.35-17.97,97.01-.66,4.75,5.18,4.86,10.36,12,1.17,1.61,5.62,3.36,6.43-.75,2.76-14.19,20.78-106.34,27.84-135.62,1.9-7.88,1.36-11.85-13.19-5.39"/>
        <path class="cls-1" d="M263.23,70.51c6.21-9.24,8.01-7.36,9.5-10.17,1.87-3.54.63-6.84-6-6.03,0,0-2.51.18-7.13.7,7.36-18.91,13.79-34.96,18.43-47.16,1.57-4.14,1.78-7.17-.8-7.78-2.75-.66-10.69,3.63-15.58,4.46-1.55.27-3.04,1.92-3.54,3.09-7.82,17.94-14.83,35.05-20.9,50.63-7.77,1.32-16.87,3.06-27.02,5.35,7.27-18.65,14.62-37.05,21.8-54.76,3.53-8.71-5.77-9.53-9.37-.7-4.68,11.46-13.46,32.94-23.17,57.98-7.14,1.75-14.7,3.75-22.62,6.03-5.75,1.65-5.99,3.19-3.5,6.63,1.38,1.91,4.21,1.72,5.5,3.1,3.35,3.53,5.39,7.77,11.4,8.41-5.36,14.3-10.72,29.05-15.57,43.24-3.04,8.91,5.63,10.75,8.97,1.31,5.37-15.2,11.04-30.59,16.85-45.93,4.85-1.13,16.58-3.65,27.42-6-8.6,23.54-14.27,41.41-16.39,50.11-.41,1.67.27,2.6.61,3.28,2.89,4.22,5.66,4.39,9.39,9.6,1.01,1.43,4.4,2.19,5.56-1.3,7.95-24.04,16.15-46.59,23.8-66.8,3.17-.69,8.89-2.07,12.38-7.29"/>
        <path class="cls-1" d="M260.59,114.69c-2.41,1.47-4.35-.11-1.1-4.57.55-.75,1.1-1.48,1.67-2.2.55,1.69,1.13,3.42,1.71,5.11-.75.62-1.51,1.19-2.27,1.66M264.91,93.54c-.6.68-1.17,1.29-1.72,1.87-.14-.51-.27-.97-.38-1.36-1.83-6.94,6.13-5.04,2.1-.51M269.1,107.22c-.56.49-1.15,1.04-1.74,1.61-.67-2.07-1.34-4.16-1.97-6.14,1.88-2.29,3.68-4.55,5.22-6.95,6.4-9.95-6.25-15.68-11.7-9.22-2.91,3.45-2.19,6.83-1.38,9.73.25.9.63,2.18,1.1,3.72-1.56,1.59-3.42,3.58-5.9,6.46-6.18,7.17-4.5,16.46,2.11,18.52,4.02,1.25,7.78-.57,11.04-3.44.16.42.32.82.47,1.2,1.73,4.32,7.08,3,5.04-2.21-.35-.9-.8-2.12-1.29-3.54,1.05-1.33,2.01-2.68,2.86-3.94,3.94-5.83.13-9.26-3.85-5.81"/>
      </g>
    </g>
    <g>
      <path class="cls-1" d="M141.66,326.15v-39.73h25.72v5.98h-18.88v10.42h17.99v5.95h-17.99v11.42h19.37v5.95h-26.21Z"/>
      <path class="cls-1" d="M199.14,326.15l-9.83-14.68-9.64,14.68h-7.73l13.63-20.36-12.85-19.37h7.81l9.1,13.79,9-13.79h7.73l-12.95,19.37,13.55,20.36h-7.81Z"/>
      <path class="cls-1" d="M240.99,313.36c-.7,4.33-2.5,7.68-5.4,10.06-2.9,2.38-6.52,3.57-10.87,3.57-5.48,0-9.79-1.89-12.94-5.66-3.15-3.77-4.73-8.78-4.73-15.03s1.58-11.26,4.75-15.03c3.17-3.77,7.47-5.66,12.91-5.66,4.36,0,7.99,1.19,10.88,3.58,2.89,2.39,4.69,5.74,5.39,10.05h-6.84c-.54-2.41-1.63-4.28-3.29-5.62-1.65-1.34-3.7-2.01-6.14-2.01-3.47,0-6.11,1.34-7.93,4.01-1.82,2.68-2.73,6.23-2.73,10.67s.91,7.99,2.73,10.65c1.82,2.67,4.47,4,7.93,4,2.44,0,4.49-.67,6.15-2.02,1.66-1.35,2.75-3.2,3.27-5.58h6.84Z"/>
      <path class="cls-1" d="M246.44,326.15v-39.73h6.84v33.77h17.83v5.95h-24.67Z"/>
      <path class="cls-1" d="M306.88,310.48c0,5.32-1.44,9.4-4.32,12.24-2.88,2.85-6.74,4.27-11.57,4.27s-8.7-1.42-11.57-4.27c-2.86-2.85-4.3-6.93-4.3-12.24v-24.05h6.81v24.05c0,3.52.75,6.16,2.26,7.92,1.51,1.76,3.77,2.64,6.79,2.64s5.25-.88,6.75-2.64c1.5-1.76,2.25-4.4,2.25-7.92v-24.05h6.89v24.05Z"/>
      <path class="cls-1" d="M311.15,314.06h6.79c.83,4.6,3.65,6.89,8.48,6.89,2.39,0,4.28-.55,5.68-1.64,1.4-1.1,2.1-2.64,2.1-4.63,0-1.58-.49-2.81-1.46-3.68-.97-.87-3.29-1.76-6.98-2.68-5.26-1.27-8.82-2.84-10.68-4.7-1.86-1.86-2.79-4.22-2.79-7.1,0-3.3,1.35-5.95,4.04-7.93,2.69-1.98,6.07-2.98,10.13-2.98s7.37.99,9.83,2.98c2.46,1.98,3.9,4.83,4.31,8.55h-6.79c-.56-3.72-3.01-5.58-7.35-5.58-2.05,0-3.75.43-5.12,1.29-1.37.86-2.05,2.08-2.05,3.66,0,1.4.53,2.53,1.58,3.38,1.05.85,3.28,1.67,6.69,2.46,5.26,1.15,8.84,2.7,10.73,4.65,1.89,1.95,2.84,4.5,2.84,7.66,0,3.65-1.37,6.61-4.12,8.89-2.75,2.28-6.29,3.42-10.61,3.42s-7.95-1.11-10.56-3.34c-2.6-2.23-4.18-5.42-4.71-9.59Z"/>
      <path class="cls-1" d="M346.73,326.15v-39.73h6.84v39.73h-6.84Z"/>
      <path class="cls-1" d="M376.74,317.94l11.64-31.51h7.22l-15.54,39.73h-6.79l-15.57-39.73h7.24l11.69,31.51h.11Z"/>
      <path class="cls-1" d="M400.02,326.15v-39.73h25.72v5.98h-18.88v10.42h17.99v5.95h-17.99v11.42h19.37v5.95h-26.21Z"/>
    </g>
  </g>
</svg>