<?xml version="1.0" encoding="UTF-8"?>
<svg id="Layer_2" data-name="Layer 2" xmlns="http://www.w3.org/2000/svg" viewBox="0 0 546.07 205.32">
  <g id="Layer_1-2" data-name="Layer 1">
    <g>
      <path d="M332.02,20.66v183.59s-18.47.1-18.47.1V20.19s5.52-4.81,5.52-4.81h-22.15s5.85,4.86,5.85,4.86l.02,184.03-18.24.08V17.95c0-6.83,3.94-12.62,9.86-15.21,9-3.93,19.01-3.38,28.16.15,9.43-3.51,19.75-4.11,28.83,0,6.14,2.78,9.69,8.06,9.69,14.99v186.6s-18.31-.18-18.31-.18l.02-184.6,5.38-4.24-22.24-.18,6.09,5.38Z"/>
      <path d="M461.79,15.39l-21.95-.03,5.7,4.83v184.02s-18.25-.05-18.25-.05l.06-187.16c0-6.78,4.97-12.59,10.56-14.63,17.95-6.57,36.8,1.64,36.8,13.56l.08,188.44-18.49-.16V20.92s5.48-5.53,5.48-5.53Z"/>
      <path d="M171.17,204.78c-8.27.68-15.81.23-21.83-4.91-3.99-3.4-6.42-9.94-6.44-15.43l-.18-44.63,18.62.03-.03,44.76-6.23,5.16,22.84.04-6.13-5.2c-.22-11.76.66-23.17-1.19-34.8-5.09-32-19.82-61.24-25.99-95.99-2.08-11.73-2.13-23.64-1.42-35.3.59-9.85,7.8-16.73,17.23-17.94,7.83-1,15.83-.72,22.37,4.2,4.48,3.37,7.12,9.94,7.15,15.82l.22,41.4-18.36.1V20.22s5.6-4.83,5.6-4.83l-22.53-.08,6.61,5.81c-.92,17.15.75,33.44,5.98,49.81l13.32,41.72c7.9,24.75,11.21,49.99,8.52,75.91-.96,9.27-8.87,15.46-18.14,16.22Z"/>
      <path d="M252.79,200.76c-8.88,5.99-21.67,5.83-30.62.48-5.44-3.26-8.2-10.39-8.23-16.64l-.24-44.76h18.62s-.03,44.74-.03,44.74l-6.84,5.17,23.3.11-6.59-5.76c-.02-11.02.84-21.6-.62-32.24-4.31-31.5-19.42-61.81-25.81-97.15-2.18-12.03-2.27-24-1.57-36.1.38-6.59,4.11-13.23,10.1-15.89,7.84-3.49,16.9-3.56,24.89-.38,6.84,2.72,11.11,10.12,11.16,17.64l.28,42.1-18.29-.03-.02-41.32,5.92-5.32-22.31-.08,6.77,6.51c-1.56,17.03.52,33.15,5.56,49.24l13.86,44.21c6.85,21.86,9.32,43.59,8.34,66.61-.29,6.77-1.15,14.5-7.66,18.89Z"/>
      <path d="M.03,139.96l18.28-.16.05,45.11-6.07,4.94,22.71-.1-5.68-4.37V2.06s18.25-.02,18.25-.02l-.05,185.61c0,8.41-6.27,14.65-13.69,16.36-6.95,1.61-14.27,1.51-20.83-.35C4.67,201.3,0,194.68,0,186.44l.03-46.49Z"/>
      <polygon points="403.3 204.2 385.07 204.25 385.08 8.62 377.38 2.08 410.77 2.12 403.32 8.3 403.3 204.2"/>
      <path d="M527.83,185.3l-.06-67.62,18.28-.03-.1,71.22c-.02,12.68-17.61,19.46-34.24,14.72-7.79-2.22-13.12-9.25-13.12-17.9l.02-167.67c0-7.78,5.28-13.95,11.97-16.11,8.57-2.76,17.78-2.59,25.82.97,6.53,2.89,10.16,9.02,9.61,16.1l.04,90.1-28.95-.03-.04,76.01-6.13,4.73,23.04-.03-6.14-4.46ZM527.79,96.44l.02-76.28,5.55-4.81-22.32.05,6.05,5.31v75.83s10.71-.09,10.71-.09Z"/>
      <path d="M71.58,110.22c7.62-12.3,24.35-13.89,28.42-27.8l.76-62.72,5.55-4.32-22.41-.02,5.88,4.75.02,61.87-18.27.06.06-64.21c0-7.87,5.41-14.23,12.77-16.24s15.71-2.09,22.94.42c7.85,2.72,11.8,9.05,11.8,17.2l-.02,185.03-18.2.21-.65-6.7c-3.05,6.05-9.1,8.16-15.66,7.45-5.6-.6-12.84-5.53-12.85-12.6l-.14-82.37ZM83.61,189.82l23.29-.07-6.31-4.5-.09-84.36c-4.52,2.92-8.11,5.6-10.68,9.42l-.02,74.48-6.19,5.03Z"/>
    </g>
  </g>
</svg>