<?xml version="1.0" encoding="UTF-8"?>
<svg id="Layer_1" xmlns="http://www.w3.org/2000/svg" version="1.1" viewBox="0 0 125 29">
  <!-- Generator: Adobe Illustrator 30.3.0, SVG Export Plug-In . SVG Version: 2.1.3 Build 182)  -->
  <defs>
    <style>
      .st0 {
        fill: #231f20;
      }
    </style>
  </defs>
  <path class="st0" d="M0,21.8V.7h7.2c1.7,0,3.1.3,4.1.8s1.9,1.3,2.4,2.2c.5.9.8,2,.8,3.2s-.3,2.2-.8,3.1c-.5.9-1.3,1.7-2.4,2.3-1.1.6-2.5.8-4.2.8H3v8.4H0ZM3,10.8h4c1.6,0,2.7-.3,3.4-1,.7-.7,1-1.6,1-2.8s-.3-2.2-1-2.8c-.7-.7-1.8-1-3.4-1H3v7.6ZM21.8,22.1c-1.2,0-2.3-.2-3.1-.6s-1.4-1-1.8-1.7c-.4-.7-.6-1.5-.6-2.3s.3-1.8.8-2.6c.5-.7,1.3-1.3,2.2-1.6,1-.4,2.1-.6,3.5-.6h3.9c0-.9-.1-1.6-.4-2.2-.3-.6-.6-1-1.2-1.3-.5-.3-1.1-.4-1.9-.4s-1.7.2-2.3.7c-.6.4-1,1.1-1.2,1.9h-3c.1-1.1.5-2,1.1-2.7.6-.8,1.4-1.3,2.4-1.7,1-.4,2-.6,3.1-.6s2.6.2,3.6.8c1,.5,1.7,1.2,2.2,2.1.5.9.8,2,.8,3.2v9.4h-2.6l-.2-2.5c-.2.4-.5.8-.8,1.1-.3.4-.7.7-1.1.9-.4.3-.9.5-1.4.6-.5.2-1.1.2-1.7.2ZM22.4,19.7c.6,0,1.2-.1,1.7-.4.5-.3,1-.6,1.3-1.1.4-.5.7-1,.8-1.5.2-.6.3-1.2.3-1.8h0c0,0-3.6,0-3.6,0-.9,0-1.6.1-2.1.3-.5.2-.9.5-1.1.8-.2.4-.4.8-.4,1.3s.1.9.3,1.3c.2.3.6.6,1,.8.4.2,1,.3,1.6.3ZM33.7,21.8V6.6h3v15.1h-3ZM35.2,3.8c-.6,0-1.1-.2-1.4-.5-.4-.4-.5-.8-.5-1.4s.2-1,.5-1.3C34.2.2,34.6,0,35.2,0s1,.2,1.4.5c.4.3.6.8.6,1.3s-.2,1-.6,1.4-.8.5-1.4.5ZM41,21.8V6.6h2.7l.2,2.6c.5-.9,1.2-1.6,2-2.1.9-.5,1.9-.8,3-.8s2.2.2,3.1.7c.9.5,1.5,1.2,2,2.2.5,1,.7,2.2.7,3.6v8.9h-3v-8.6c0-1.4-.3-2.5-.9-3.2-.6-.7-1.5-1.1-2.7-1.1s-1.5.2-2.1.6c-.6.4-1.1.9-1.5,1.6-.4.7-.5,1.6-.5,2.6v8.1h-3ZM64.8,21.8c-1,0-1.8-.1-2.5-.5-.7-.3-1.2-.8-1.6-1.5-.4-.7-.6-1.6-.6-2.8v-7.8h-2.6v-2.6h2.6l.4-3.8h2.6v3.8h4.3v2.6h-4.3v7.8c0,.9.2,1.5.5,1.8.4.3,1,.5,1.9.5h1.7v2.5h-2.5ZM71,21.8V6.6h3v15.1h-3ZM72.5,3.8c-.6,0-1.1-.2-1.4-.5-.4-.4-.5-.8-.5-1.4s.2-1,.5-1.3C71.4.2,71.9,0,72.5,0s1,.2,1.4.5c.4.3.6.8.6,1.3s-.2,1-.6,1.4c-.4.4-.8.5-1.4.5ZM78.2,21.8V6.6h2.7l.2,2.6c.5-.9,1.2-1.6,2-2.1.9-.5,1.9-.8,3-.8s2.2.2,3.1.7c.9.5,1.5,1.2,2,2.2.5,1,.7,2.2.7,3.6v8.9h-3v-8.6c0-1.4-.3-2.5-.9-3.2-.6-.7-1.5-1.1-2.7-1.1s-1.5.2-2.1.6c-.6.4-1.1.9-1.5,1.6-.4.7-.5,1.6-.5,2.6v8.1h-3ZM102,28.7c-1.4,0-2.6-.2-3.7-.5-1.1-.3-1.9-.9-2.5-1.6s-.9-1.6-.9-2.6.1-1.1.4-1.6c.2-.5.6-1.1,1.2-1.6s1.3-.9,2.2-1.4l1.7,1.4c-1,.4-1.7.8-2.1,1.4-.3.5-.5,1.1-.5,1.6s.2,1.1.5,1.5c.4.4.8.7,1.5.9.6.2,1.4.3,2.2.3s1.5-.1,2-.3c.6-.2,1-.5,1.4-.9.3-.4.5-.9.5-1.4s-.2-1.2-.7-1.6c-.5-.4-1.4-.7-2.8-.8-1.1,0-2.1-.2-2.9-.3-.8-.1-1.4-.3-2-.5-.5-.2-1-.4-1.4-.7-.4-.2-.7-.5-.9-.8v-.7l3-3.1,2.4.8-3.3,3,.6-1.3c.2.1.4.3.6.4.2.1.5.2.8.3.3,0,.8.2,1.4.3s1.3.2,2.3.2c1.4.1,2.4.3,3.3.7.8.4,1.5.9,1.8,1.5.4.6.6,1.4.6,2.3s-.2,1.7-.7,2.5c-.5.8-1.2,1.4-2.2,1.9-1,.5-2.2.8-3.8.8ZM102,17.1c-1.3,0-2.4-.2-3.3-.7-.9-.5-1.6-1.1-2-1.9-.5-.8-.7-1.7-.7-2.7s.2-1.9.7-2.7c.5-.8,1.2-1.5,2.1-2,.9-.5,2-.8,3.2-.8s2.3.2,3.2.8c.9.5,1.6,1.1,2,2,.5.8.7,1.7.7,2.7s-.2,1.9-.7,2.7c-.5.8-1.1,1.5-2,1.9-.9.5-2,.7-3.2.7ZM102,14.7c1,0,1.8-.2,2.3-.8.6-.5.9-1.3.9-2.2s-.3-1.7-.9-2.2c-.6-.5-1.4-.8-2.3-.8s-1.8.3-2.4.8c-.6.5-.9,1.2-.9,2.2s.3,1.7.9,2.2c.6.5,1.4.8,2.4.8ZM104.5,9l-.7-2.4h6.2v2.1l-5.5.3ZM118.8,22.1c-1.3,0-2.4-.2-3.4-.6s-1.7-1-2.3-1.8c-.6-.8-.9-1.6-1-2.7h3.1c0,.5.3.9.6,1.3.3.4.7.7,1.2,1,.5.2,1.1.4,1.8.4s1.2,0,1.6-.3c.4-.2.8-.5,1-.8.2-.3.3-.7.3-1.1,0-.6-.1-1-.4-1.3-.3-.3-.7-.5-1.2-.7-.5-.2-1.1-.3-1.9-.5-.7-.1-1.4-.3-2-.5-.6-.2-1.2-.5-1.7-.8-.5-.3-.9-.7-1.2-1.2-.3-.5-.5-1.1-.5-1.8s.2-1.6.7-2.3c.5-.7,1.1-1.2,2-1.6.9-.4,1.9-.6,3-.6,1.7,0,3,.4,4,1.2,1,.8,1.6,1.9,1.8,3.4h-2.9c0-.7-.4-1.2-.9-1.6-.5-.4-1.2-.6-2.1-.6s-1.5.2-2,.5-.7.8-.7,1.4.1.7.4,1c.3.3.6.5,1.1.7.5.2,1.2.3,1.9.5,1.1.2,2,.4,2.8.8.8.3,1.5.7,2,1.3s.8,1.4.8,2.5c0,.9-.2,1.8-.7,2.5-.5.7-1.2,1.3-2.1,1.7-.9.4-1.9.6-3.2.6Z"/>
</svg>