<?xml version="1.0" encoding="UTF-8"?>
<svg id="Layer_1" xmlns="http://www.w3.org/2000/svg" version="1.1" viewBox="0 0 79 28">
  <!-- Generator: Adobe Illustrator 30.3.0, SVG Export Plug-In . SVG Version: 2.1.3 Build 182)  -->
  <defs>
    <style>
      .st0 {
        fill: #231f20;
      }
    </style>
  </defs>
  <path class="st0" d="M0,21V0h3v18.6h9.6v2.4H0ZM22.2,21.4c-1.4,0-2.7-.3-3.8-1-1.1-.7-2-1.6-2.7-2.8-.6-1.2-1-2.6-1-4.1s.3-3,1-4.2c.7-1.2,1.6-2.1,2.7-2.8,1.1-.7,2.4-1,3.8-1s2.7.3,3.8,1c1.1.7,2,1.6,2.6,2.8.7,1.2,1,2.6,1,4.2s-.3,3-1,4.2c-.6,1.2-1.5,2.1-2.7,2.8-1.1.7-2.4,1-3.9,1ZM22.2,18.8c.8,0,1.6-.2,2.2-.6.7-.4,1.2-1,1.6-1.8.4-.8.6-1.8.6-3s-.2-2.2-.6-2.9c-.4-.8-.9-1.4-1.6-1.8-.7-.4-1.4-.6-2.2-.6s-1.5.2-2.2.6c-.7.4-1.2,1-1.7,1.8-.4.8-.6,1.8-.6,2.9s.2,2.2.6,3c.4.8,1,1.4,1.6,1.8.7.4,1.4.6,2.2.6ZM38.6,28c-1.4,0-2.6-.2-3.7-.5-1.1-.3-1.9-.9-2.5-1.6-.6-.7-.9-1.6-.9-2.6s.1-1.1.4-1.6c.2-.5.6-1.1,1.2-1.6s1.3-.9,2.2-1.4l1.7,1.4c-1,.4-1.7.8-2.1,1.4-.3.5-.5,1.1-.5,1.6s.2,1.1.5,1.5c.4.4.8.7,1.5.9.6.2,1.4.3,2.2.3s1.5-.1,2-.3c.6-.2,1-.5,1.4-.9.3-.4.5-.9.5-1.4s-.2-1.2-.7-1.6c-.5-.4-1.4-.7-2.8-.8-1.1,0-2.1-.2-2.9-.3-.8-.1-1.4-.3-2-.5-.5-.2-1-.4-1.4-.7-.4-.2-.7-.5-.9-.8v-.7l3-3.1,2.4.8-3.3,3,.6-1.3c.2.1.4.3.6.4.2.1.5.2.8.3.3,0,.8.2,1.4.3.6,0,1.3.2,2.3.2,1.4.1,2.4.3,3.3.7.8.4,1.5.9,1.8,1.5.4.6.6,1.4.6,2.3s-.2,1.7-.7,2.5c-.5.8-1.2,1.4-2.2,1.9-1,.5-2.2.8-3.8.8ZM38.6,16.4c-1.3,0-2.4-.2-3.3-.7-.9-.5-1.6-1.1-2-1.9-.5-.8-.7-1.7-.7-2.7s.2-1.9.7-2.7c.5-.8,1.2-1.5,2.1-2,.9-.5,2-.8,3.2-.8s2.3.2,3.2.8c.9.5,1.6,1.1,2,2,.5.8.7,1.7.7,2.7s-.2,1.9-.7,2.7c-.5.8-1.1,1.5-2,1.9-.9.5-2,.7-3.2.7ZM38.6,13.9c1,0,1.8-.2,2.3-.8.6-.5.9-1.3.9-2.2s-.3-1.7-.9-2.2c-.6-.5-1.4-.8-2.3-.8s-1.8.3-2.4.8c-.6.5-.9,1.2-.9,2.2s.3,1.7.9,2.2c.6.5,1.4.8,2.4.8ZM41.1,8.3l-.7-2.4h6.2v2.1l-5.5.3ZM55.9,21.4c-1.4,0-2.7-.3-3.8-1-1.1-.7-2-1.6-2.7-2.8-.6-1.2-1-2.6-1-4.1s.3-3,1-4.2c.7-1.2,1.6-2.1,2.7-2.8,1.1-.7,2.4-1,3.8-1s2.7.3,3.8,1c1.1.7,2,1.6,2.6,2.8.7,1.2,1,2.6,1,4.2s-.3,3-1,4.2c-.6,1.2-1.5,2.1-2.7,2.8-1.1.7-2.4,1-3.9,1ZM55.9,18.8c.8,0,1.6-.2,2.2-.6.7-.4,1.2-1,1.6-1.8.4-.8.6-1.8.6-3s-.2-2.2-.6-2.9c-.4-.8-.9-1.4-1.6-1.8-.7-.4-1.4-.6-2.2-.6s-1.5.2-2.2.6c-.7.4-1.2,1-1.7,1.8-.4.8-.6,1.8-.6,2.9s.2,2.2.6,3c.4.8,1,1.4,1.6,1.8.7.4,1.4.6,2.2.6ZM72.8,21.4c-1.3,0-2.4-.2-3.4-.6s-1.7-1-2.3-1.8c-.6-.8-.9-1.6-1-2.7h3.1c0,.5.3.9.6,1.3.3.4.7.7,1.2,1,.5.2,1.1.4,1.8.4s1.2,0,1.6-.3c.4-.2.8-.5,1-.8.2-.3.3-.7.3-1.1,0-.6-.1-1-.4-1.3-.3-.3-.7-.5-1.2-.7-.5-.2-1.1-.3-1.9-.5-.7-.1-1.4-.3-2-.5-.6-.2-1.2-.5-1.7-.8-.5-.3-.9-.7-1.2-1.2-.3-.5-.5-1.1-.5-1.8s.2-1.6.7-2.3c.5-.7,1.1-1.2,1.9-1.6.9-.4,1.9-.6,3-.6,1.7,0,3,.4,4,1.2,1,.8,1.6,1.9,1.8,3.4h-2.9c0-.7-.4-1.2-.9-1.6-.5-.4-1.2-.6-2.1-.6s-1.5.2-2,.5-.7.8-.7,1.4.1.7.4,1c.3.3.6.5,1.1.7.5.2,1.2.3,1.9.5,1.1.2,2,.4,2.9.8.8.3,1.5.7,2,1.3s.8,1.4.8,2.5c0,.9-.2,1.8-.7,2.5-.5.7-1.2,1.3-2.1,1.7-.9.4-1.9.6-3.2.6Z"/>
</svg>