<?xml version="1.0" encoding="UTF-8"?>
<svg id="Layer_2" data-name="Layer 2" xmlns="http://www.w3.org/2000/svg" viewBox="0 0 473.01 112.76">
  <g id="Layer_1-2" data-name="Layer 1">
    <g>
      <path d="M308.28,109.39c73.34,0,29.57-99.43,91.99-99.46v-1.8c-73.48.04-29.71,99.34-91.99,99.34v1.92Z"/>
      <rect x="425.43" width="31.88" height="2.29"/>
      <rect x="379.43" width="31.88" height="2.29"/>
      <path d="M440.79,109.87c-26.33,0-41.48-27.65-41.46-51.06,0-23.59,15.13-51.24,41.46-51.24,11.42,0,22.48,4.45,31.01,11.9l1.2-1.44c-8.89-7.69-20.44-12.26-32.22-12.26-28.73,0-50.34,24.97-50.37,53.05,0,27.86,21.63,52.86,50.37,52.86,11.78,0,23.32-4.45,32.22-12.26l-1.2-1.32c-8.54,7.45-19.59,11.78-31.01,11.78Z"/>
      <path d="M264.53,4.67c-29.51,0-53.87,24.3-53.98,53.9-1.83-.47-3.98-.7-6.26-.7-11.62,0-19.95,6.09-28.11,12.06-.55.41-1.11.81-1.66,1.21V8.16h-8.66v68.72c-4.54,2.59-9.45,4.55-15.22,5.12V8.16h-8.66v73.64c-5.89-.92-11.07-3.44-15.22-7.56V8.16h-4.09l-54.1,89.21V8.16h-4.11L0,109.39h2.31L59.89,18.77v90.62h3.51L118.1,19.22v90.17h8.66v-32.08c4.23,3.63,9.38,5.93,15.22,6.77v25.31h8.66v-25.12c5.77-.54,10.73-2.36,15.22-4.79v29.91h55.06v-1.92h-46.41v-33.55c1.01-.72,2-1.45,2.99-2.17,8.17-5.97,15.9-11.63,26.76-11.64,2.55,0,4.71.33,6.34.82,1.14,28.7,24.95,51.82,53.93,51.82s54.1-24.29,54.1-53.98-24.41-54.1-54.1-54.1ZM264.53,110.95c-27.29,0-44.6-27.05-44.6-52.18s17.31-52.17,44.6-52.17,44.6,26.93,44.6,52.17-17.19,52.18-44.6,52.18Z"/>
    </g>
  </g>
</svg>