<svg xmlns="http://www.w3.org/2000/svg" viewBox="0 0 106.99 105.38"><defs><style>.cls-1{fill:#010202;}</style></defs><g id="Layer_2" data-name="Layer 2"><g id="Layer_1-2" data-name="Layer 1"><path class="cls-1" d="M33.43,10.57c-.72-1.25-2-1.09-3.2-.93-1,.13-1.51.13-1.77-.32s.05-1,.68-1.39a3.57,3.57,0,0,1,2-.42l-.72-1.27a4,4,0,0,0-2,.55C27,7.61,26.51,9,27.18,10.13s1.89,1.06,2.93.93,1.7-.19,2,.32,0,1.18-.72,1.58a3.62,3.62,0,0,1-2.4.34l.77,1.35a4.12,4.12,0,0,0,2.37-.58C33.62,13.22,34.14,11.82,33.43,10.57Z"/><polygon class="cls-1" points="37.82 4.16 39.86 10.41 41.25 9.95 39.22 3.71 41.37 3 40.97 1.76 35.26 3.62 35.67 4.87 37.82 4.16"/><path class="cls-1" d="M50.44,8.28a3,3,0,0,0,2.88-3.34L52.87,0,51.41.13,51.85,5a1.7,1.7,0,1,1-3.39.31L48,.44,46.56.57,47,5.51A3,3,0,0,0,50.44,8.28Z"/><path class="cls-1" d="M65.65,5.18A3.88,3.88,0,0,0,62.3.66L59.51.22,58.27,8l2.8.44A3.87,3.87,0,0,0,65.65,5.18Zm-4.9-3.46L62,1.91a2.59,2.59,0,0,1,2.18,3,2.59,2.59,0,0,1-3,2.22L59.92,7Z"/><rect class="cls-1" x="67.33" y="6.29" width="7.89" height="1.47" transform="translate(39.98 71.45) rotate(-69.72)"/><path class="cls-1" d="M83.71,13.59a4.09,4.09,0,1,0-5.64,1.29A4,4,0,0,0,83.71,13.59Zm-1.28-.8A2.59,2.59,0,1,1,78,10.06a2.59,2.59,0,1,1,4.39,2.73Z"/><path class="cls-1" d="M96.57,31.76c1.26-.72,1.1-2,.94-3.19-.13-1-.13-1.51.32-1.77s1,0,1.39.68a3.56,3.56,0,0,1,.42,2l1.27-.71a4,4,0,0,0-.55-2c-.81-1.43-2.15-1.92-3.33-1.25S96,27.4,96.09,28.44s.19,1.7-.32,2-1.18,0-1.57-.72a3.57,3.57,0,0,1-.35-2.4l-1.35.77a4.16,4.16,0,0,0,.58,2.37C93.93,31.94,95.33,32.47,96.57,31.76Z"/><polygon class="cls-1" points="96.73 38.19 97.18 39.59 103.43 37.56 104.12 39.72 105.37 39.31 103.52 33.6 102.27 34.01 102.97 36.17 96.73 38.19"/><path class="cls-1" d="M98.85,48.93a4.08,4.08,0,1,0,3.71-4.42A4,4,0,0,0,98.85,48.93Zm6.73-.56A2.68,2.68,0,1,1,102.69,46,2.57,2.57,0,0,1,105.58,48.37Z"/><polygon class="cls-1" points="98.81 58.71 103.96 59.71 100.14 61.22 100 61.94 102.97 64.78 97.82 63.77 97.54 65.2 105.29 66.71 105.54 65.41 101.77 61.92 106.58 60.09 106.83 58.79 99.09 57.28 98.81 58.71"/><path class="cls-1" d="M95.63,70.17,97,71.67l-1.35,2.78-2.06-.19L93,75.61l8.43.72L102,75l-5.76-6.19ZM100.25,75,97,74.62l1-2Z"/><polygon class="cls-1" points="95.54 83.32 90.33 79.32 89.43 80.49 94.64 84.48 93.26 86.28 94.3 87.08 97.96 82.32 96.92 81.52 95.54 83.32"/><path class="cls-1" d="M82.69,87.15a4.08,4.08,0,1,0,5.75.56A4,4,0,0,0,82.69,87.15ZM87,92.38a2.68,2.68,0,1,1,.31-3.71A2.56,2.56,0,0,1,87,92.38Z"/><polygon class="cls-1" points="71.57 94.04 72.14 95.22 75.07 93.79 77.95 99.7 79.28 99.06 75.82 91.97 71.57 94.04"/><path class="cls-1" d="M64.64,96.05a4.08,4.08,0,1,0,4.92,3A4,4,0,0,0,64.64,96.05Zm1.54,6.59a2.68,2.68,0,1,1,1.91-3.21A2.59,2.59,0,0,1,66.18,102.64Z"/><path class="cls-1" d="M52.7,97.22a5.63,5.63,0,0,0-2.91.68l-.09,3.7,3.22.08,0-1.22-1.86,0,0-1.6a5.3,5.3,0,0,1,1.5-.2,2.49,2.49,0,0,1,2.64,2.7A2.66,2.66,0,0,1,52.43,104a4.6,4.6,0,0,1-2.52-.8l0,1.51a5.28,5.28,0,0,0,2.57.69,4,4,0,0,0,4.33-4A4,4,0,0,0,52.7,97.22Z"/><rect class="cls-1" x="39.79" y="99.4" width="7.89" height="1.47" transform="translate(-63.59 120.66) rotate(-77.24)"/><rect class="cls-1" x="33.1" y="97.37" width="7.89" height="1.47" transform="translate(-67.82 97.53) rotate(-69)"/><path class="cls-1" d="M21,86.3l-1-1a2.59,2.59,0,1,0-3.72,3.6l2,2.09L24,85.47l-1-1ZM18.19,89l-.86-.89a1.29,1.29,0,0,1,0-1.84,1.33,1.33,0,0,1,1.88,0l.86.89Z"/><path class="cls-1" d="M15.89,75.05a4,4,0,0,0-5.59-1.5,4.1,4.1,0,0,0,4.11,7.09A4,4,0,0,0,15.89,75.05Zm-2.24,4.28a2.59,2.59,0,1,1-2.59-4.48,2.59,2.59,0,1,1,2.59,4.48Z"/><polygon class="cls-1" points="11.4 64.87 5.42 64.54 10.59 61.52 10.24 60.09 2.01 59.67 2.37 61.13 8.47 61.32 3.15 64.38 3.48 65.73 9.6 66.01 4.27 68.98 4.62 70.43 11.74 66.29 11.4 64.87"/><rect class="cls-1" x="1.82" y="52.37" width="7.9" height="1.47" transform="translate(-0.54 0.06) rotate(-0.58)"/><polygon class="cls-1" points="2.02 43.18 0.29 41.19 0 42.9 1.82 44.34 2.02 43.18"/><path class="cls-1" d="M4.25,46.82c1.33.22,2-.79,2.57-1.69s.93-1.42,1.51-1.32.9.75.76,1.54a3.47,3.47,0,0,1-1.25,2.07l1.54.26a4.16,4.16,0,0,0,1-2.19c.29-1.71-.46-3-1.88-3.23s-2.1.84-2.74,1.89C5.28,45,5,45.4,4.43,45.31s-.76-.68-.64-1.4a3.51,3.51,0,0,1,1-1.84L3.3,41.83a4,4,0,0,0-.85,1.9C2.18,45.36,2.91,46.59,4.25,46.82Z"/><polygon class="cls-1" points="13.71 34.03 12.49 33.56 11.31 36.59 5.19 34.22 4.66 35.59 12.01 38.44 13.71 34.03"/><polygon class="cls-1" points="18.38 26.08 17.29 25.38 15.3 28.49 13.57 27.38 15.16 24.92 14.08 24.23 12.5 26.69 10.83 25.62 12.76 22.63 11.67 21.93 8.96 26.15 15.59 30.41 18.38 26.08"/><path class="cls-1" d="M63.94,74.59c-.08-.1-.42-.4-1.09,0a7,7,0,0,1-6.2,1.07,6.06,6.06,0,0,1-3.95-3.49A23.24,23.24,0,0,0,67,71.57a.6.6,0,0,0,.38-.44.58.58,0,0,0-.16-.56c-3.45-3.52-5-2.88-6.39-2.31a3.3,3.3,0,0,1-1.38.34,1.85,1.85,0,0,1-.57-.18,2.78,2.78,0,0,0-1.2-.32,7.5,7.5,0,0,0-4.35.36,9,9,0,0,0-2.8,1.6l-.21.16a.62.62,0,0,0-.36.57.59.59,0,0,0,.37.56c.33.15.67.28,1,.41a.46.46,0,0,0,0,.26,7.2,7.2,0,0,0,5,4.89,8.58,8.58,0,0,0,2.36.34,7.86,7.86,0,0,0,5.18-1.89A.58.58,0,0,0,63.94,74.59Zm-8.72-5.44a5,5,0,0,1,3,.43l.12,0a3,3,0,0,0,2.82-.11c1-.45,2-.88,4.4,1.29A27.08,27.08,0,0,1,51.8,70.7,6,6,0,0,1,55.22,69.15Z"/><path class="cls-1" d="M61.72,36.82c.2,2.06,1.54,16.76.07,25.7H56.36a.65.65,0,1,0,0,1.3h6.52l.1-.53c1.79-9.82,0-26.81,0-27l0-.37-.34-.16c-16.52-7.49-29.64,0-29.77,0a.66.66,0,0,0-.23.9.65.65,0,0,0,.89.23C33.61,36.87,46,29.87,61.72,36.82Z"/><path class="cls-1" d="M54.62,48.19a.66.66,0,0,0,.92,0,.65.65,0,0,0,0-.92l-1.82-1.82-.45.35c-5.69,4.46-10.37,1.29-11.68.22a.72.72,0,0,0-.92-.08.53.53,0,0,0-.16.42.85.85,0,0,0,.26.67,10.45,10.45,0,0,0,6.51,2.37,10.67,10.67,0,0,0,6.33-2.22Z"/></g></g></svg>