<?xml version="1.0" encoding="UTF-8"?>
<svg id="Layer_2" data-name="Layer 2" xmlns="http://www.w3.org/2000/svg" viewBox="0 0 493.6 239.85">
  <defs>
    <style>
      .cls-1 {
        fill: #010101;
      }
    </style>
  </defs>
  <g id="Layer_2-2" data-name="Layer 2">
    <g>
      <path class="cls-1" d="M214.15,88.12v63.79h47.64v-63.79h-47.64ZM257.55,100.87l-3.36-2.88s-1.67-1.18-2.97-1.4c-1.31-.22-2.92.26-3.66.52-.73.27-2.19,1.27-2.71,2.01-.52.74-1.09,1.7-1.3,2.27-.22.57-.26.88-.26.88,0,0,1.44-1.92,3.36-2.88,1.92-.96,3.09-.87,4.18-.66,1.09.22,2.05,1.05,3.02,2.01.95.96,3,3.22,3,3.22l-.61,3.05s-2.35-3.05-3.22-3.84c-.89-.78-1.79-1.66-2.58-1.83-.77-.17-1.78-.35-3.43.83-1.66,1.17-2.31,2.7-2.71,3.23-.4.52-1.17,1.91-1.17,1.91,0,0,4.44-3.57,6.05-3.4,1.61.17,2.14.57,3.14,1.57,1.01,1,3.19,3.8,3.19,3.8l-.96,3.14s-1.66-3.1-3.31-4.71c-1.65-1.61-2.62-1.14-3.78-.39-1.18.74-2.89,2.53-2.89,2.53,0,0,2.09-1.05,3.18-1.05s2.05.4,2.92,1.31c.87.92,1.66,1.74,2.09,2.61.44.87.84,1.87.84,1.87,0,0-.26,1.26-.75,2.09-.48.83-1.04,1.48-1.04,1.48,0,0-.18-2.35-.92-3.97-.75-1.61-1.43-2.18-2.31-2.44-.87-.26-1.52-.17-2.27.05-.73.22-1.35.48-1.88.91-.52.43-.6.61-.6.61,0,0,2.18-.13,3.31.3,1.13.44,1.72,1,2.1,1.92.38.92.87,3.23.9,4.19l.06.96s0,.35-.66.92c-.66.56-1.27,1.05-1.27,1.05,0,0-.08-2.79-.52-4.15-.44-1.35-.87-2.13-2.05-2.44-1.18-.3-1.3-.13-2.22.05-.92.17-1.91.44-1.91.44,0,0,1.3.08,2.09.61.77.52,1.26.66,1.83,1.92.57,1.26.61,1.96.83,3.01.22,1.04.53,2.01.53,2.01l-2.19,1.35-.53-3.01s-.3-1.35-.91-2.09c-.6-.74-.92-1.22-1.79-1.35-.87-.13-1.96.26-1.96.26,0,0,1.36.17,1.84.52.47.35,1.22,1.7,1.56,2.92.35,1.22.52,3.67.52,3.67l-2.08,1-.26-2.14s.12-1.66-1.09-2.88c-1.23-1.22-1.38-.48-1.97-.4-.61.09,1.62,5.89,1.62,5.89,0,0-.75.09-1.57.44-.83.35-1.57.74-1.57.74,0,0-.26.13-.17.65.08.53.24.47.24.47,0,0,4-.28,6.05.72,2.05,1,1.68.45,3.33,1.72,1.66,1.26,2.03,2.04,2.72,3.13.7,1.08,1.52,3.02,1.52,3.02,0,0,.08,1.1.21,1.71.04.18-.81,7.54-.81,7.54l-5.65-1.32s1.13-6.65-.6-8.44c-2.65-2.71-4.99-2.63-8.49-2.83-1.52-.09-3.05.83-4.34,1.31-.81.31-2.26,1.88-2.92,3.23-.39.78-.07,6.7-.07,6.7l-5.44,1.71s-1.53-7.32-.44-9.92c1.01-2.43,3.46-5.65,5.85-6.97,2.52-1.37,3.72-1.22,4.75-1.41.92-.18,1.73-.03,1.73-.03v-1.48s-2.96-.13-6.23-1.7c-3.26-1.57-4.56-2.96-5.13-5.49-.58-2.53-.53-4.88-.35-7.37.17-2.49,1.56-11.33,1.56-11.33,0,0-.43.48-.64.82-.23.35-.75.87-.75.87,0,0-1.22-1-1.61-1.48-.39-.48-.49-.61-.61-.96-.13-.36-.49-1.14.87-1.4,1.35-.26,2.57-.57,2.57-.57l-2.75-3.05,3.02,1.35.39-3.58.83,2.35s.57,1.09,1.26.14c.69-.96,1.58-1.53,2.05-1.48.48.04,1.39-.09,1.7,1.05.31,1.13-.03,1.92-.09,2.48-.03.57-.17,2.05-.17,2.05,0,0-.35.57-1.18.3-.83-.26-1.79-.74-1.79-.74l6.98,15.56,6.46-14.47s1.73-3.8,4.22-5.76c2.49-1.97,4.06-2.18,5.68-2.09,1.61.09,3.74.52,5.1,1.44,1.35.92,2.27,2.22,2.27,2.22,0,0,.47.88.43,1.27-.05.39-.43,1.87-.43,1.87Z"/>
      <g>
        <path class="cls-1" d="M176.13,80.64s-4.78,1.2-5.37,5.18c-.6,3.99-.2,6.18,1.98,7.37,2.2,1.2,4.19,2.99,7.18-1.59,2.98-4.58,3.58-8.97,3.39-13.35-.21-4.38-1.6-10.16-2.8-12.95-1.19-2.79-2.39-5.78-2.39-5.78,0,0-1.19,2.59-1.58,3.79-.41,1.2-1.79,2.59-2.2,3.39-.4.8-1.39,3.98-1.39,3.98l-3.39-2.79s-1.79-3.79.6-6.38c2.39-2.59,11.75-11.56,11.75-11.56,0,0,1.6-1.19,4.18,2,2.6,3.19,3.8,3.79,5.59,4.98,1.79,1.2,4.18,2.39,4.18,2.39l2-15.34s-.4-3.59,3.39-4.98c3.78-1.39,7.17-2.79,7.17-2.79,0,0,1.59.8.4,1.8-1.19.99-1.79,2.19-1.79,2.19,0,0,.19,1.79,1,3.79.79,1.99,3.58,11.36,4.98,13.55,1.39,2.19,1.6,2.59,1.6,2.59,0,0,1.19,1.19,2.38.79,1.2-.4,1.41-.4,1.41-.4,0,0,.6,1.2-.79,1.79-1.41.6-9.17,2.99-10.37,4.18-1.19,1.2-1.6,1.2-1.6,1.2l-1.19-1.2,1.6-1.99s1.6.6-.41-4.98c-1.98-5.58-5.37-12.36-5.37-12.36l-2.39,24.71-16.74-12.95s1.79,6.77,3.19,11.75c1.39,4.98,1.39,10.56.41,14.15-1,3.58-2.8,10.16-6.79,12.55-3.98,2.4-7.77,3.59-10.95-1.39-3.18-4.98-1-9.56-.2-11.36.79-1.79,2.79-2.99,4.18-3.99,1.4-.99,2.99-.99,2.99-.99l2.19.99Z"/>
        <path class="cls-1" d="M213.99,34.22l9.17-2.59s1.98-1.2,2.19,4.18c.21,5.38.4,10.36,1.2,12.36.79,1.99,1.79,5.38,3.38,6.57,1.61,1.2,5.59,1.99,8.58-1,2.99-2.99,3.79-4.98,3.79-4.98l.79-13.75s-.79-1.8-2-2.19c-1.2-.4-2-.6-2-.6,0,0-1.58-2.39,1.41-2.39s8.95.2,8.95.2c0,0,3-1,2.01,4.39-1,5.38-2.6,17.14-2.6,17.14,0,0,0,3.39.99,3.99,1.01.59,1.8.59,1.8.59l-.6,2-7.57-.4s-1.58-.2-1.79-1.8c-.19-1.59,0-2.39,0-2.39,0,0-2.99,2.19-5.38,3.59-2.39,1.39-4.98,2.59-9.96,1.2s-6.18-2.99-6.97-7.17c-.8-4.19-1.2-10.76-1.2-10.76,0,0,0-3.19-1.79-3.79-1.79-.59-2.39-.8-2.39-.8v-1.59Z"/>
        <path class="cls-1" d="M312.62,69.88c-.79-2.39-3.58-3.19-4.99-3.39-1.4-.2-1.79,1.6-1.79,1.6,0,0,3.2.59,4.2,2.19.98,1.59-.6,2.39-2.8,2-2.19-.4-3.19-2.79-3.19-2.79,0,0-.19-1.59.21-4.98.4-3.39-.4-8.57-.4-8.57,0,0-2.8-3.19-5.57-5.58-2.8-2.39-4.2-2.39-7.18-2.39s-5.18,4.18-2.79,3.78c2.39-.4,3.39.6,3.39.6l4.58,3.98-6.57,1.8s-1.39-.8-2.79-1.4c-1.39-.6-3.78-.6-6.57-.2-2.79.4-1.39,2.79-1.39,2.79l3.58-.4c3.59-.4,1.2,1.59,1.2,1.59,0,0-.81,0-5.59,2.19-4.79,2.19-6.18.4-6.18.4h.01c-.18-.09-.94-.46-3.6-1.79-4.37-2.19-.39-4.58-.39-4.58,0,0,12.56-8.76,16.93-11.16,4.39-2.39.21-3.98.21-3.98,0,0-3.59-2.19-6.18-3.38-2.6-1.2-14.54-4.99-18.94-6.18-4.37-1.2-3.98.6-3.98.6l-1.2,8.57s2.6-2.59,3.99-3.79c1.39-1.19,3.58-1.59,8.96-.8,5.38.8,7.38,3.39,7.38,3.39l-1.6,2.19s-9.16,7.38-14.95,11.36c-5.78,3.99-6.97,2.59-6.97,2.59l.2,2s1.79.8,3.19.99c1.39.2,6.38,1.4,11.36,3.99,4.99,2.59,10.96,6.58,13.35,8.17,2.39,1.6,3.19.8,3.19.8,0,0,1.41-.8,3.99-3.19,2.6-2.39,1-2.99,1-2.99,0,0-2,1-3.58,1.99-1.6.99-3.2-.2-3.2-.2l-1.19-1.6s3.58-2.59,5.97-3.78c2.39-1.2,3.79.2,3.79.2,0,0,3.18,1.99,5.18,3.98,2,1.99,1,5.78,1,5.78l-1,7.57-2.19-1c-2.19-1-1.79,1.59-1.79,1.59,0,0,2.19,3.39,4.18,6.78,1.98,3.39,4.18,5.58,4.18,5.58,0,0,.4-.59.21-2.19-.21-1.59.6-4.98.6-4.98l3.39-10.36s4.17,2.59,6.58,1.59c2.39-1,3.39-4.58,2.58-6.97ZM296.67,63.11l-3.19-2.59s1.8-.6,2.39-.8c.6-.2,1.19.4,1.19,1.19s-.4,2.19-.4,2.19Z"/>
      </g>
      <g>
        <path class="cls-1" d="M71.03,109.97c-5.52.19-12.92.95-12.92.95,0,0-3.23.57-5.7-1.52-2.47-2.09-1.13-3.8-.19-4.17.95-.38,2.66-.76,2.66-.76l.39-1.14s-5.51-1.14-7.22,1.14c-1.71,2.28-2.28,3.04-.95,5.13,1.33,2.09,4.75,3.42,6.65,3.61,1.89.19,3.6.38,3.6.38l-7.98,19.56s-1.32,2.28-3.79,2.66c-2.47.38-2.47,1.33-2.47,1.33l16.14.95,1.15-.19.19-2.28-4.56-.38s-.76.57.38-2.85c1.13-3.42,2.09-6.08,2.09-6.08,0,0,.18-.95,2.09-.95s7.03,0,11.01-3.61c3.99-3.61,5.32-5.32,5.51-7.6.18-2.28-.58-4.37-6.07-4.18ZM66.66,121.56c-2.66,2.85-6.46,1.33-6.46,1.33l4.76-9.68s1.89-.76,3.02-.76,1.72.38,2.28,2.09c.58,1.71-.94,4.17-3.6,7.02Z"/>
        <path class="cls-1" d="M90.4,120.99c-3.23.17-4.43.19-6.62.76-1.47.39-2.7,1.33-2.7,1.33,0,0-6.07,6.08-7.01,10.44-.95,4.37,2.28,4.94,4.36,4.75,2.1-.19,7.35-1.81,10.39-5.13,2.99-3.29,4.05-4.56,4.61-7.41.58-2.85.58-4.94-3.04-4.75ZM86.98,127.63c-1.15,2.66-1.7,4.18-4.75,6.46-3.04,2.28-2.28-.38-2.28-.38,0,0,.13-1.81.58-3.42.39-1.47,1.36-3.23,1.93-4.37,0,0,.47-.66,1.1-1.33.59-.62,1.34-.95,2.66-1.33,1.34-.38,1.9,1.71.76,4.37Z"/>
        <path class="cls-1" d="M107.31,116.24l-7.99,15.01s-4.17,6.27-1.52,6.83c2.66.57,5.9-.38,8.93-2.85,3.04-2.47,4.78-5.7,4.78-5.7l-.85.1-4.12,2.94s-3.8,3.04-1.33-2.66c2.47-5.69,8.17-13.29,8.93-14.24.75-.95,1.32-1.9,1.32-1.9,0,0,3.38-4.82-2.43-2.85-5.6,1.9-7.22,2.66-7.22,2.66l-2.12,1.33s-.38,1.14.37,1.33c.77.19,3.24,0,3.24,0Z"/>
        <path class="cls-1" d="M125.91,124.98s2.09,2.28,3.62.19c1.52-2.09.56-3.42-1.52-3.61-2.09-.19-5.89.19-7.22,1.71-1.32,1.52-1.52,4.37-.18,5.7,1.33,1.33,4.37,3.22,4.17,4.36-.19,1.15-.38,2.66-2.47,2.66s-2.66-.19-2.66-1.33-.75-3.8-3.03-2.47c-2.28,1.33-1.4,2.76-1.01,3.42.37.66,1.2,2.09,3.85,2.47,2.65.38,6.45-.57,8.17-2.85,1.7-2.28,2.85-5.13,1.13-6.46-1.71-1.33-3.6-1.9-4.18-2.66-.56-.76-.95-1.52-.38-1.9.57-.38,1.7.76,1.7.76Z"/>
        <path class="cls-1" d="M148.55,111.49s5.28-1.71,3.39,2.09c-1.9,3.8-7.41,12.54-7.41,12.54l6.64-3.99s4.94-1.52,5.13.57c.19,2.09-.19,3.42-2.47,4.37-2.28.95-3.42-.38-3.42-.38l-.38-.76-2.66.95s-1.52,1.52-.18,3.42c1.33,1.9,2.65,2.85,2.65,2.85,0,0,1.08,2.37,3.37-.48,2.28-2.85,3.7-3.89,3.7-3.89,0,0,.86-.38-.28,1.33-1.13,1.71-5.88,7.6-5.88,7.6,0,0-2.04,2.47-5.26-1.14-3.23-3.61-3.81-4.56-3.81-4.56l-1.7,3.8s-.19,2.47-2.28,2.47-3.05-.19-3.05-.19c0,0-2.27.19.19-3.6,2.47-3.8,8.74-17.1,8.74-17.1l-1.72-.19s-2.85-.57.19-2.28c3.04-1.71,6.49-3.42,6.49-3.42Z"/>
        <path class="cls-1" d="M168.08,122.13s5.89-1.9,3.79,1.71c-2.08,3.61-4.94,8.73-4.94,8.73,0,0-.95,2.28,1.52.95,2.47-1.33,4.69-2.28,4.69-2.28,0,0,1.81,0-1.84,2.47-3.88,2.63-6.65,3.42-6.65,3.42,0,0-5.88,1.71-3.23-3.8,2.66-5.51,3.74-6.36,3.74-6.36,0,0-.09-1.42-1.9-.66-1.88.79-2.94,1.14-2.94,1.14,0,0-.95-.19,1.89-1.9,2.86-1.71,4.28-2.56,4.28-2.56l1.58-.85Z"/>
        <path class="cls-1" d="M169.06,117.28s-.98,1.99-.04,2.38c.96.38,2.86.19,4.19-.76,1.34-.95,2.28-2.85,1.89-3.41-.36-.57-1.89-1.14-2.83-.76-.95.38-3.21,2.57-3.21,2.57Z"/>
        <path class="cls-1" d="M195.62,122.13c-.58-1.14-2.85-2.09-6.27-.57-3.42,1.52-5.51,3.99-5.51,3.99,0,0-3.42,4.37-3.99,7.6-.58,3.23.95,4.18,2.28,4.75,1.34.57,2.47.76,5.13-.57,2.65-1.33,5.16-3.61,5.53-4.37.39-.76.1-1.33-1.04-.57-1.13.76-3.16,2.28-4.87,2.28s-2.08-2.09-1.71-2.85c.39-.76.76-1.33.76-1.33,0,0,4.75-1.52,7.22-3.8,2.47-2.28,3.04-3.42,2.47-4.55ZM190.29,125.54c-1.13,1.33-1.7,1.9-2.46,1.52-.76-.38.13-1.14.51-1.9,0,0,1.58-1.52,2.14-1.52s.95.57-.19,1.9Z"/>
      </g>
      <g>
        <path class="cls-1" d="M271.04,135.88l12.23.19s.19-1.34-.95-1.34-2.68-.38-2.11-2.29c.58-1.91,7.83-17,7.83-17l11.09,21.58,12.23-22.35s2.48-2.68,4.39-2.87c1.92-.19,4.01-2.1.19-2.29-3.82-.19-10.65.19-10.65.19l-.3.95s3.51,1.15,3.12,2.48c-.32,1.1-6.83,15.85-6.83,15.85l-6.78-12.61s-1.28-2.67-1.28-4.2-.19-2.68-2.48-2.1c-2.29.57-4.96.95-6.31-.95-1.34-1.91-.76-3.06-.76-3.06,0,0-1.14-1.72-2.29.19-1.15,1.91-1.15,3.82-.19,4.77.95.96,3.45,1.72,3.45,1.72,0,0,1.32,0,.56,2.1-.77,2.1-6.88,14.71-6.88,14.71,0,0-.76,2.29-2.68,3.25-1.9.96-4.26,2.01-4.26,2.01l-.33,1.06Z"/>
        <path class="cls-1" d="M333.51,129.19c-2.1,2.3-2.68,2.87-2.68,2.87,0,0-2.11.19-.95-2.29,1.15-2.48,4.01-8.59,4.01-8.59l-.44-1.24s-2.62.29-4.53.1c-1.9-.19-4-1.15-6.68.76-2.68,1.91-7.07,5.92-8.22,10.12-1.15,4.2,0,4.97,1.53,5.73,1.53.76,6.5-1.53,6.5-1.53,0,0,1.71-1.15,2.29.19.58,1.34.19,4.01,4.58.77,4.41-3.25,5.93-5.92,5.93-5.92,0,0,.76-3.25-1.34-.96ZM328.16,123.46s-.76,2.67-2.68,5.92c-1.9,3.25-3.82,3.82-4.77,3.25-.96-.57-.64-1.43-.25-3.53.37-2.1,1.9-4.78,1.9-4.78,0,0,.51-.72,1.43-1.34,1.16-.76.86-.57,3.16-.95,2.29-.38,1.2,1.43,1.2,1.43Z"/>
        <path class="cls-1" d="M360.26,120.4h-1.34s-1.53,0-4.01-.38c-2.49-.38-6.11.57-7.83,1.91-1.72,1.34-5.54,5.35-6.32,7.83-.76,2.48-1.52,6.12,1.15,6.88,2.66.76,6.3-1.53,6.3-1.53,0,0-1.9,4.39-3.05,6.3-1.16,1.91-3.45,5.92-6.51,6.3-3.24.41-5.28-.98-4.02-3.24,1.72-3.06,5.74-5.73,5.74-5.73,0,0,.95-1.91-3.05-1.53-4.01.38-5.36,3.06-5.93,4.39-.58,1.34-.95,5.54.95,7.07,1.92,1.53,7.07,3.05,11.65-.38,4.58-3.44,4.2-4.01,7.64-9.55,3.45-5.54,8.6-15.47,8.6-15.47,0,0,1.34-2.87,0-2.87ZM354.52,124.23s-.76,2.29-3.24,5.54c-2.49,3.25-4.2,3.25-4.79,2.48-.56-.76-.25-1.43.14-3.53.38-2.1,1.71-3.82,1.71-3.82l.96-1.34s.67-.86,3.63-1.52c2.82-.64,1.59,2.2,1.59,2.2Z"/>
        <path class="cls-1" d="M365.73,125.27l5.83-3.92s4.36-2.29,4.17-.57c-.19,1.72-.58,2.3.39,2.68.95.38,1.92-.96,2.87-1.72.95-.77,2.28-.77,3.43-.2,1.15.58,1.53,2.68.19,3.82-1.35,1.15-3.25,1.15-4.4,1.15s-2.54.28-2.54.28c0,0-4.15,4.69-5.1,6.59-.95,1.91-1.72,2.49-1.72,2.49,0,0-1.9.57-2.48.57s-2.67,0-.76-2.86c1.9-2.87,3.05-5.54,3.05-5.54,0,0,1.15-3.25-.38-2.49-1.53.77-3.88,1.43-3.88,1.43v-.67l1.34-1.05Z"/>
        <path class="cls-1" d="M409.14,124.99l5.74-3.44s4.59-.95,3.06,1.72c-1.53,2.68-.96,2.68-.96,2.68,0,0,3.25-2.29,4.4-3.06,1.15-.76,6.31-2.48,4.39,2.1-1.91,4.58-2.87,6.11-2.87,6.11,0,0-.18,1.91.77.95.95-.95,2.47-2.48,2.47-2.48,0,0-.57,2.1-2.47,4.2-1.92,2.1-4.2,3.63-4.96,4.01-.77.38-4.22.19-2.3-3.25,1.92-3.44,3.44-6.49,3.44-6.49,0,0,.96-3.06-1.9-.57-2.87,2.48-5.16,4.58-6.3,6.49-1.14,1.91-3.06,3.82-4.01,3.63-.95-.19-2.68-1.34-.76-3.63,1.9-2.29,4.39-7.26,4.39-7.26l-1.59.29s-1.85.1-1.66-.67c.19-.77,1.14-1.34,1.14-1.34Z"/>
        <path class="cls-1" d="M438.59,122.03s5.92-1.91,3.82,1.72c-2.11,3.63-4.96,8.79-4.96,8.79,0,0-.96,2.29,1.53.95,2.47-1.33,4.71-2.29,4.71-2.29,0,0,1.81,0-1.85,2.49-3.92,2.65-6.7,3.44-6.7,3.44,0,0-5.92,1.72-3.24-3.82,2.68-5.54,3.76-6.4,3.76-6.4,0,0-.1-1.43-1.92-.67-1.9.8-2.96,1.15-2.96,1.15,0,0-.95-.2,1.9-1.91,2.87-1.72,4.3-2.58,4.3-2.58l1.59-.86Z"/>
        <path class="cls-1" d="M439.57,117.16s-.98,2.01-.03,2.39c.95.38,2.87.19,4.2-.76,1.34-.95,2.29-2.87,1.91-3.44-.4-.57-1.91-1.14-2.87-.76-.95.38-3.22,2.58-3.22,2.58Z"/>
        <path class="cls-1" d="M402.79,130.15c-2.1,2.29-2.68,2.87-2.68,2.87,0,0-2.11.19-.96-2.29,1.16-2.48,4.01-8.6,4.01-8.6l-.43-1.24s-2.62.29-4.53.1c-1.9-.19-4.01-1.14-6.69.77-2.66,1.91-7.06,5.92-8.2,10.12-1.16,4.2,0,4.96,1.53,5.73,1.52.76,6.48-1.53,6.48-1.53,0,0,1.72-1.15,2.3.19.57,1.34.19,4.01,4.58.76,4.4-3.25,5.93-5.92,5.93-5.92,0,0,.76-3.25-1.34-.95ZM397.44,124.41s-.76,2.68-2.68,5.92c-1.9,3.25-3.82,3.82-4.77,3.25-.96-.57-.64-1.43-.25-3.53.37-2.1,1.9-4.78,1.9-4.78,0,0,.5-.72,1.43-1.34,1.15-.76.86-.58,3.16-.96,2.29-.38,1.2,1.43,1.2,1.43Z"/>
        <path class="cls-1" d="M467.95,130.68c-2.09,2.29-2.66,2.87-2.66,2.87,0,0-2.11.19-.96-2.29,1.14-2.49,4.01-8.6,4.01-8.6l-.44-1.24s-2.61.29-4.52.1c-1.92-.19-4.01-1.15-6.69.76-2.68,1.91-7.07,5.92-8.22,10.12-1.15,4.2,0,4.97,1.53,5.73,1.53.77,6.49-1.53,6.49-1.53,0,0,1.72-1.14,2.29.19.58,1.34.19,4.01,4.59.77,4.38-3.24,5.92-5.92,5.92-5.92,0,0,.76-3.25-1.35-.96ZM462.6,124.95s-.76,2.68-2.68,5.93c-1.9,3.24-3.82,3.82-4.77,3.24-.95-.57-.64-1.43-.25-3.53.39-2.1,1.9-4.78,1.9-4.78,0,0,.51-.72,1.44-1.34,1.15-.76.86-.57,3.15-.95,2.29-.39,1.2,1.43,1.2,1.43Z"/>
      </g>
      <g>
        <path class="cls-1" d="M160.7,183.47h-1.36v6.61c0,.49.21.83.62,1.03.41.2,1.11.37,2.11.49.28.04.43.25.43.63,0,.17-.01.36-.06.57-.62-.04-1.38-.08-2.29-.11-.92-.03-1.91-.05-2.99-.05-.76,0-1.48.02-2.19.05-.72.03-1.38.07-1.98.11-.05-.08-.06-.18-.06-.29v-.25c0-.36.11-.56.34-.6.44-.08.8-.16,1.07-.24s.49-.16.63-.25c.15-.09.25-.21.3-.35.06-.14.08-.31.08-.52v-15.83c0-.42-.15-.73-.45-.92-.3-.19-.88-.34-1.75-.44-.1-.04-.18-.1-.25-.19-.07-.08-.09-.23-.09-.44v-.29c0-.1.01-.19.06-.25.59.04,1.27.08,2.04.11.77.03,1.45.05,2.07.05h4.77c1.12,0,2.11.14,3,.41.89.27,1.64.67,2.26,1.17.62.5,1.1,1.1,1.42,1.8.34.7.5,1.47.5,2.31,0,1.12-.35,2.14-1.03,3.05-.68.91-1.63,1.6-2.83,2.07l4.96,7.24c.39.55.83.93,1.32,1.14.5.21.95.37,1.37.47.11.02.19.07.26.14.06.07.09.21.09.39v.29c0,.1,0,.21-.06.31-.23-.02-.56-.04-.98-.05-.42,0-.85-.03-1.32-.05-.45-.02-.89-.04-1.36-.05-.45-.01-.83-.02-1.11-.02-.45,0-.9-.19-1.34-.56-.44-.37-.87-.86-1.29-1.47l-4.9-7.24ZM160.28,181.88c.66,0,1.25-.06,1.78-.19.52-.13.98-.34,1.36-.65.38-.3.67-.71.86-1.21.2-.5.3-1.15.3-1.93,0-1.3-.32-2.33-.95-3.09-.64-.76-1.75-1.14-3.36-1.14h-.94v8.22h.94Z"/>
        <path class="cls-1" d="M174.54,185.87c0-1.03.19-1.99.56-2.86.38-.87.88-1.63,1.53-2.27.66-.65,1.44-1.14,2.35-1.5.91-.36,1.89-.54,2.97-.54s2.13.18,3.04.54c.89.36,1.68.86,2.33,1.5.66.64,1.16,1.4,1.5,2.27.35.88.52,1.83.52,2.86s-.18,1.99-.55,2.86c-.38.88-.88,1.63-1.55,2.26-.66.63-1.45,1.12-2.36,1.48-.91.36-1.89.54-2.97.54s-2.13-.18-3.04-.54c-.91-.36-1.68-.85-2.32-1.48-.64-.63-1.13-1.39-1.49-2.26-.35-.87-.52-1.83-.52-2.86ZM178.53,185.24c0,1.94.32,3.49.96,4.65.64,1.16,1.56,1.74,2.76,1.74,1.12,0,1.92-.45,2.38-1.34.47-.9.71-2.16.71-3.78,0-1.92-.33-3.47-.98-4.65-.65-1.18-1.57-1.77-2.74-1.77-1.11,0-1.92.46-2.38,1.38-.49.92-.71,2.17-.71,3.77Z"/>
        <path class="cls-1" d="M197.1,190.67c0,.29.09.51.25.65.15.14.53.29,1.15.46.09.02.17.06.24.11.08.05.11.15.11.3,0,.13-.01.24-.02.33,0,.1-.02.19-.05.27-.57-.04-1.11-.08-1.64-.11-.52-.03-1.13-.05-1.83-.05-.83,0-1.53.02-2.13.05-.58.03-1.15.07-1.7.11-.02-.08-.04-.18-.05-.27-.01-.09-.01-.2-.01-.33,0-.15.04-.25.1-.3.08-.05.16-.09.24-.11.56-.1.99-.24,1.29-.4.32-.16.48-.39.48-.71v-16.56c0-.63-.11-1.11-.35-1.44-.23-.33-.7-.52-1.45-.58-.27-.06-.4-.23-.4-.5v-.25c0-.1.01-.19.06-.25.12,0,.32,0,.55-.02.24-.01.5-.02.77-.03.27,0,.55-.03.82-.05.27-.02.53-.04.76-.06.53-.07,1.03-.15,1.52-.25.49-.11.82-.16.98-.16.34,0,.5.16.5.47,0,.23-.04.53-.09.9-.07.37-.1.89-.1,1.57v11.35l4.62-3.89c.16-.13.25-.27.25-.41,0-.3-.36-.47-1.07-.54-.25-.02-.38-.18-.38-.47,0-.17.02-.34.07-.51,1.01.06,2.03.1,3.06.1.49,0,.95,0,1.4-.02.45,0,.94-.04,1.47-.08.01.1.05.2.07.28.01.09.02.16.02.22,0,.29-.15.46-.44.51-.57.06-1,.15-1.3.27-.28.12-.54.26-.75.43l-3.69,3.22,4.79,6.6c.32.44.64.75.98.92.32.17.68.29,1.08.35.24.04.35.18.35.41,0,.06,0,.16-.01.28-.01.12-.03.23-.08.32-.8-.02-1.62-.04-2.43-.05-.82-.01-1.7-.02-2.62-.02l-5.22-7.11h-.16v5.05Z"/>
        <path class="cls-1" d="M220.91,191.05h6.38c.63,0,1.17-.07,1.6-.22.43-.15.79-.37,1.09-.66.29-.29.55-.66.78-1.11.22-.44.43-.97.65-1.58.04-.17.12-.29.24-.37.11-.07.23-.11.33-.11.19,0,.43.06.73.19-.18.93-.34,1.85-.44,2.76-.11.92-.18,1.65-.23,2.2,0,.25-.09.42-.21.52-.13.09-.28.14-.47.14-.4,0-.9-.03-1.47-.09-.58-.07-1.21-.1-1.88-.1h-12.55c0-.19.05-.37.13-.54l11.25-18.43h-5.87c-.66,0-1.2.04-1.63.11-.43.08-.81.23-1.11.46-.31.23-.55.55-.73.96-.17.41-.34.97-.49,1.66-.07.31-.3.47-.74.47-.09,0-.21-.02-.32-.05-.11-.03-.22-.08-.3-.14.15-.93.26-1.79.33-2.61.08-.81.13-1.47.17-1.98.07-.42.28-.63.67-.63.42,0,.87.03,1.37.08.5.06,1.08.08,1.76.08h12.33c0,.13,0,.24-.02.35,0,.1-.04.2-.1.29l-11.22,18.33Z"/>
        <path class="cls-1" d="M248.18,191.65c.32,0,.48.26.48.79-.27.19-.61.33-1.03.43-.4.09-.82.14-1.24.14-.95,0-1.68-.23-2.19-.69-.5-.46-.8-1-.88-1.61-.42.84-.99,1.44-1.69,1.78-.7.35-1.53.52-2.48.52-.44,0-.93-.04-1.47-.11-.53-.07-1.03-.23-1.49-.46-.45-.23-.84-.56-1.14-.98-.32-.42-.49-.98-.49-1.68,0-.78.21-1.44.61-1.99.4-.55.9-1.01,1.5-1.37.6-.37,1.26-.66,1.97-.89.73-.22,1.39-.4,2.03-.55.27-.06.55-.13.85-.21.3-.07.53-.13.69-.17.24-.07.38-.15.45-.27.06-.12.1-.42.1-.9,0-1.07-.16-1.9-.48-2.48-.32-.58-.85-.87-1.61-.87-.61,0-1.05.19-1.32.57-.26.38-.51.98-.73,1.8-.07.23-.25.41-.56.52-.3.11-.69.24-1.15.37-.26.06-.51.11-.78.16-.26.04-.49.06-.7.06-.13,0-.21-.05-.25-.14-.04-.09-.07-.28-.07-.55,0-.52.19-1.04.59-1.55.38-.51.87-.96,1.46-1.34.59-.39,1.24-.7,1.95-.93.7-.23,1.38-.35,2.04-.35.78,0,1.49.07,2.11.21.64.14,1.18.38,1.63.73.45.34.81.81,1.05,1.39.26.58.39,1.32.39,2.22v5.55c0,.73.01,1.27.04,1.61.04.34.09.59.18.76.18.38.48.57.89.57.17,0,.3-.01.42-.03.11-.02.23-.03.33-.03ZM242.75,185.74l-.7.12c-.48.09-.93.21-1.36.36-.42.16-.77.37-1.08.63-.32.26-.56.59-.73.98-.18.39-.26.86-.26,1.41,0,.82.12,1.4.38,1.73.27.32.65.49,1.17.49.79,0,1.41-.3,1.88-.89.46-.59.7-1.41.7-2.47v-2.37Z"/>
        <path class="cls-1" d="M257.77,192.79c-.54-.04-1.18-.08-1.88-.11-.7-.03-1.37-.05-1.98-.05-.67,0-1.34.02-2.01.05-.66.03-1.27.07-1.81.11-.02-.08-.04-.18-.04-.27-.02-.09-.02-.2-.02-.33,0-.15.04-.25.11-.3.08-.05.15-.09.24-.11.68-.13,1.14-.27,1.39-.41.25-.15.38-.38.38-.7v-7.36l-2.43,1.42c-.38-.38-.56-.71-.56-.98,0-.19.09-.34.27-.44l2.72-1.58v-7.62c0-.63-.11-1.11-.34-1.44-.24-.33-.72-.52-1.45-.58-.28-.06-.42-.23-.42-.5v-.25c0-.1.02-.19.07-.25.13,0,.31,0,.55-.02.24-.01.51-.02.78-.03.27,0,.54-.03.81-.05.27-.02.52-.04.76-.06.53-.07,1.03-.15,1.52-.25.49-.11.81-.16.99-.16.33,0,.5.16.5.47,0,.23-.03.53-.09.9-.07.37-.1.89-.1,1.57v6.61l2.56-1.46c.38.38.57.71.57.98,0,.21-.1.36-.32.44l-2.81,1.61v9.04c0,.32.13.55.39.7.25.14.72.28,1.38.41.24.04.35.18.35.41,0,.29-.01.49-.06.6Z"/>
        <path class="cls-1" d="M261.15,190.64c0-.67.22-1.24.68-1.7.45-.46,1.01-.7,1.66-.7s1.18.23,1.63.7c.45.46.68,1.03.68,1.7s-.23,1.22-.68,1.68c-.45.46-1,.69-1.63.69s-1.2-.23-1.66-.69c-.45-.46-.68-1.02-.68-1.68Z"/>
        <path class="cls-1" d="M274.89,177.87c.53.06,1.11.1,1.73.12.65.03,1.36.03,2.19.03s1.54-.02,2.16-.05c.62-.03,1.2-.08,1.76-.15.02.11.04.21.04.32.01.11.01.2.01.28,0,.17-.02.28-.1.33-.08.05-.16.09-.24.11-.73.1-1.22.24-1.44.41-.23.17-.33.4-.33.7v10.68c0,.32.13.55.39.7.27.14.72.28,1.38.41.08.02.16.06.24.11.08.05.1.15.1.3,0,.19-.02.39-.06.6-.56-.04-1.14-.08-1.77-.11-.64-.03-1.36-.05-2.19-.05s-1.54.02-2.15.06c-.6.04-1.18.08-1.7.13-.04-.09-.07-.18-.08-.3-.01-.11-.01-.22-.01-.33,0-.23.11-.37.34-.41.68-.13,1.15-.27,1.39-.41.25-.15.38-.38.38-.7v-10.68c0-.29-.14-.52-.41-.68-.27-.16-.72-.29-1.36-.39-.1-.03-.18-.06-.25-.11-.06-.06-.09-.16-.09-.33v-.29c0-.1.02-.21.06-.31Z"/>
        <path class="cls-1" d="M293.16,188.78c-.93.78-2.08,1.17-3.45,1.17-.75,0-1.46-.11-2.11-.32-.66-.21-1.23-.55-1.71-1.03-.49-.47-.87-1.07-1.14-1.8-.27-.73-.41-1.62-.41-2.67,0-.82.15-1.62.45-2.41.3-.78.75-1.47,1.32-2.08.56-.61,1.27-1.1,2.1-1.49.83-.38,1.79-.57,2.86-.57,1.37,0,2.49.22,3.37.65.87.43,1.56.99,2.07,1.68.5.68.86,1.46,1.06,2.32.2.86.3,1.73.3,2.59,0,1.22-.19,2.48-.57,3.78-.38,1.29-1,2.55-1.84,3.76-.84,1.21-1.92,2.34-3.24,3.38-1.32,1.05-2.9,1.91-4.76,2.61-.24-.33-.34-.62-.34-.85,0-.15.09-.31.28-.48.94-.71,1.73-1.37,2.34-1.97.62-.6,1.15-1.21,1.58-1.82.43-.61.78-1.27,1.05-1.99.27-.71.53-1.54.76-2.46ZM290.99,187.99c.57,0,1.02-.11,1.36-.32.33-.21.59-.49.75-.84.18-.35.28-.76.34-1.23.06-.48.08-.97.08-1.47,0-3.37-.81-5.06-2.43-5.06-.82,0-1.46.35-1.93,1.04-.47.69-.69,1.9-.69,3.6,0,1.56.22,2.66.65,3.3.43.64,1.06.96,1.88.96Z"/>
        <path class="cls-1" d="M309.6,179.67c-.02.76-.37,1.14-1.05,1.14h-6.19l-.51,4.27c.46-.17.98-.3,1.52-.4.56-.1,1.1-.14,1.64-.14.74,0,1.43.11,2.05.33.64.23,1.18.54,1.64.96.47.42.83.94,1.1,1.55.26.61.39,1.31.39,2.08,0,1.96-.92,3.67-2.73,5.12-1.83,1.45-4.57,2.74-8.24,3.85-.09-.1-.16-.25-.23-.42-.06-.18-.09-.32-.09-.43,0-.14.09-.27.28-.38,1.43-.63,2.58-1.27,3.45-1.91.88-.64,1.56-1.27,2.04-1.91.49-.63.81-1.25.98-1.85.16-.6.25-1.18.25-1.73,0-1.01-.28-1.79-.81-2.34-.53-.55-1.32-.83-2.32-.83-.42,0-.85.04-1.32.11-.45.08-.96.2-1.53.37l.78-9.1h8.95l-.09,1.64Z"/>
        <path class="cls-1" d="M316.55,181.82c.53-.38,1.07-.67,1.64-.87.55-.2,1.17-.3,1.81-.3.76,0,1.47.11,2.12.31.66.21,1.22.56,1.7,1.03.5.47.87,1.08,1.14,1.82.28.74.41,1.62.41,2.65,0,.76-.15,1.53-.44,2.3-.3.76-.73,1.47-1.32,2.1-.56.63-1.28,1.14-2.11,1.54-.83.4-1.79.6-2.87.6-1.36,0-2.48-.22-3.34-.65-.87-.43-1.55-.99-2.05-1.67-.51-.68-.86-1.46-1.05-2.32-.18-.86-.27-1.73-.27-2.59,0-1.22.22-2.46.7-3.7.47-1.24,1.18-2.45,2.12-3.63.94-1.18,2.11-2.3,3.5-3.36,1.41-1.07,3.04-2.01,4.88-2.83.24.34.35.62.35.85,0,.19-.09.35-.28.47-.94.67-1.78,1.34-2.52,2-.72.65-1.36,1.31-1.89,1.97-.55.66-.99,1.35-1.36,2.05-.36.71-.67,1.45-.87,2.23ZM318.76,182.62c-.57,0-1.02.1-1.37.31-.35.21-.6.5-.77.86-.17.36-.28.77-.33,1.23-.06.46-.09.94-.09,1.45,0,3.37.81,5.06,2.43,5.06.83,0,1.47-.35,1.93-1.05.46-.7.69-1.89.69-3.6,0-1.56-.22-2.66-.65-3.3-.43-.64-1.04-.96-1.85-.96Z"/>
      </g>
      <path class="cls-1" d="M246,239.85c-50.62,0-112.92-12.87-162.56-33.58C25.53,182.1,0,151.44,0,119.92,0,51.5,146.73,0,246,0c53.41,0,105.42,12.56,155.12,33.59,56.56,23.93,92.48,54.59,92.48,86.33,0,70.47-158.95,119.93-247.6,119.93ZM246,14.32C144.26,14.32,1.6,66.53,1.6,119.92c0,25,24.74,51.65,76.23,73.13,48,20.03,119.31,32.48,168.18,32.48,45.23,0,116.81-12.75,165.12-32.5,53.42-21.83,79.3-48.48,79.3-73.11s-35.14-51.9-85.33-73.14c-47.31-20.02-108.27-32.46-159.09-32.46Z"/>
    </g>
  </g>
</svg>